<svg width="175" height="25" viewBox="0 0 175 25" fill="none" xmlns="http://www.w3.org/2000/svg">
<path d="M8.712 4.2C10.824 4.2 12.56 4.632 13.92 5.496C15.28 6.344 15.976 7.608 16.008 9.288V9.576H11.04V9.48C11.04 9 10.864 8.6 10.512 8.28C10.16 7.96 9.624 7.8 8.904 7.8C8.2 7.8 7.656 7.904 7.272 8.112C6.904 8.32 6.72 8.576 6.72 8.88C6.72 9.312 6.976 9.632 7.488 9.84C8 10.048 8.824 10.264 9.96 10.488C11.288 10.76 12.376 11.048 13.224 11.352C14.088 11.64 14.84 12.12 15.48 12.792C16.12 13.464 16.448 14.376 16.464 15.528C16.464 17.48 15.8 18.928 14.472 19.872C13.16 20.816 11.4 21.288 9.192 21.288C6.616 21.288 4.608 20.856 3.168 19.992C1.744 19.128 1.032 17.6 1.032 15.408H6.048C6.048 16.24 6.264 16.8 6.696 17.088C7.128 17.36 7.8 17.496 8.712 17.496C9.384 17.496 9.936 17.424 10.368 17.28C10.816 17.136 11.04 16.84 11.04 16.392C11.04 15.992 10.792 15.696 10.296 15.504C9.816 15.296 9.024 15.08 7.92 14.856C6.576 14.568 5.464 14.272 4.584 13.968C3.704 13.648 2.936 13.128 2.28 12.408C1.624 11.688 1.296 10.712 1.296 9.48C1.296 7.672 1.992 6.344 3.384 5.496C4.792 4.632 6.568 4.2 8.712 4.2ZM17.4883 4.488H31.7683V8.448H22.7923V10.728H30.4723V14.52H22.7923V17.04H31.9363V21H17.4883V4.488ZM41.4086 4.2C44.2566 4.2 46.4566 4.928 48.0086 6.384C49.5606 7.84 50.3366 9.96 50.3366 12.744C50.3366 15.528 49.5606 17.648 48.0086 19.104C46.4566 20.56 44.2566 21.288 41.4086 21.288C38.5606 21.288 36.3606 20.568 34.8086 19.128C33.2726 17.672 32.5046 15.544 32.5046 12.744C32.5046 9.944 33.2726 7.824 34.8086 6.384C36.3606 4.928 38.5606 4.2 41.4086 4.2ZM41.4086 8.16C40.2726 8.16 39.4086 8.504 38.8166 9.192C38.2246 9.88 37.9286 10.808 37.9286 11.976V13.512C37.9286 14.68 38.2246 15.608 38.8166 16.296C39.4086 16.984 40.2726 17.328 41.4086 17.328C42.5446 17.328 43.4086 16.984 44.0006 16.296C44.6086 15.608 44.9126 14.68 44.9126 13.512V11.976C44.9126 10.808 44.6086 9.88 44.0006 9.192C43.4086 8.504 42.5446 8.16 41.4086 8.16ZM63.3928 21L56.4568 12.984V21H51.5848V4.488H56.2168L63.1528 12.624V4.488H68.0248V21H63.3928ZM78.273 4.2C79.857 4.2 81.281 4.44 82.545 4.92C83.809 5.4 84.809 6.112 85.545 7.056C86.297 7.984 86.673 9.12 86.673 10.464H81.609C81.609 9.776 81.305 9.224 80.697 8.808C80.089 8.376 79.353 8.16 78.489 8.16C77.241 8.16 76.297 8.496 75.657 9.168C75.017 9.824 74.697 10.76 74.697 11.976V13.512C74.697 14.728 75.017 15.672 75.657 16.344C76.297 17 77.241 17.328 78.489 17.328C79.353 17.328 80.089 17.128 80.697 16.728C81.305 16.312 81.609 15.784 81.609 15.144H77.865V11.784H86.673V21H83.937L83.409 19.368C81.905 20.648 79.937 21.288 77.505 21.288C74.769 21.288 72.713 20.576 71.337 19.152C69.961 17.712 69.273 15.576 69.273 12.744C69.273 9.944 70.049 7.824 71.601 6.384C73.169 4.928 75.393 4.2 78.273 4.2ZM99.4892 21V14.736H93.6572V21H88.3532V4.488H93.6572V10.512H99.4892V4.488H104.793V21H99.4892ZM114.945 4.2C117.793 4.2 119.993 4.928 121.545 6.384C123.097 7.84 123.873 9.96 123.873 12.744C123.873 15.528 123.097 17.648 121.545 19.104C119.993 20.56 117.793 21.288 114.945 21.288C112.097 21.288 109.897 20.568 108.345 19.128C106.809 17.672 106.041 15.544 106.041 12.744C106.041 9.944 106.809 7.824 108.345 6.384C109.897 4.928 112.097 4.2 114.945 4.2ZM114.945 8.16C113.809 8.16 112.945 8.504 112.353 9.192C111.761 9.88 111.465 10.808 111.465 11.976V13.512C111.465 14.68 111.761 15.608 112.353 16.296C112.945 16.984 113.809 17.328 114.945 17.328C116.081 17.328 116.945 16.984 117.537 16.296C118.145 15.608 118.449 14.68 118.449 13.512V11.976C118.449 10.808 118.145 9.88 117.537 9.192C116.945 8.504 116.081 8.16 114.945 8.16ZM124.177 21V16.224H129.265V21H124.177ZM138.025 4.488C143.801 4.488 146.689 7.24 146.689 12.744C146.689 18.248 143.801 21 138.025 21H130.873V4.488H138.025ZM136.177 17.04H137.929C140.153 17.04 141.265 15.848 141.265 13.464V12.024C141.265 9.64 140.153 8.448 137.929 8.448H136.177V17.04ZM154.161 8.04C156.481 8.04 158.249 8.584 159.465 9.672C160.697 10.76 161.313 12.424 161.313 14.664V15.48H151.809C151.809 16.392 152.009 17.08 152.409 17.544C152.825 18.008 153.473 18.24 154.353 18.24C155.153 18.24 155.737 18.072 156.105 17.736C156.489 17.4 156.681 16.952 156.681 16.392H161.313C161.313 17.928 160.729 19.128 159.561 19.992C158.393 20.856 156.689 21.288 154.449 21.288C152.097 21.288 150.273 20.744 148.977 19.656C147.681 18.552 147.033 16.888 147.033 14.664C147.033 12.488 147.665 10.84 148.929 9.72C150.193 8.6 151.937 8.04 154.161 8.04ZM154.353 11.088C152.849 11.088 152.009 11.8 151.833 13.224H156.489C156.489 12.568 156.297 12.048 155.913 11.664C155.545 11.28 155.025 11.088 154.353 11.088ZM164.736 21L159.936 8.328H165.072L167.4 16.224H167.568L169.896 8.328H174.6L169.752 21H164.736Z" fill="#236CFF"/>
</svg>
