<svg width="132" height="37" viewBox="0 0 132 37" fill="none" xmlns="http://www.w3.org/2000/svg">
<path d="M5.688 19.216C4.984 18.976 4.344 18.736 3.768 18.496C3.192 18.24 2.696 17.936 2.28 17.584C1.864 17.232 1.536 16.816 1.296 16.336C1.072 15.84 0.96 15.24 0.96 14.536C0.96 13.176 1.48 12.088 2.52 11.272C3.576 10.456 5.048 10.048 6.936 10.048C7.624 10.048 8.264 10.096 8.856 10.192C9.448 10.288 9.952 10.44 10.368 10.648C10.8 10.84 11.136 11.096 11.376 11.416C11.616 11.72 11.736 12.08 11.736 12.496C11.736 12.912 11.64 13.272 11.448 13.576C11.256 13.864 11.024 14.112 10.752 14.32C10.4 14.096 9.928 13.904 9.336 13.744C8.744 13.568 8.096 13.48 7.392 13.48C6.672 13.48 6.144 13.584 5.808 13.792C5.472 13.984 5.304 14.232 5.304 14.536C5.304 14.776 5.408 14.976 5.616 15.136C5.824 15.28 6.136 15.416 6.552 15.544L7.824 15.952C9.328 16.432 10.48 17.048 11.28 17.8C12.096 18.536 12.504 19.544 12.504 20.824C12.504 22.184 11.968 23.288 10.896 24.136C9.824 24.968 8.248 25.384 6.168 25.384C5.432 25.384 4.744 25.32 4.104 25.192C3.48 25.08 2.928 24.912 2.448 24.688C1.984 24.448 1.616 24.16 1.344 23.824C1.088 23.472 0.96 23.072 0.96 22.624C0.96 22.16 1.096 21.768 1.368 21.448C1.64 21.112 1.936 20.856 2.256 20.68C2.704 21.032 3.248 21.336 3.888 21.592C4.544 21.848 5.256 21.976 6.024 21.976C6.808 21.976 7.36 21.856 7.68 21.616C8 21.376 8.16 21.096 8.16 20.776C8.16 20.456 8.032 20.216 7.776 20.056C7.52 19.88 7.16 19.712 6.696 19.552L5.688 19.216ZM19.3136 25.384C18.3696 25.384 17.4896 25.256 16.6736 25C15.8736 24.728 15.1696 24.328 14.5616 23.8C13.9696 23.272 13.4976 22.608 13.1456 21.808C12.8096 21.008 12.6416 20.072 12.6416 19C12.6416 17.944 12.8096 17.04 13.1456 16.288C13.4976 15.52 13.9536 14.896 14.5136 14.416C15.0736 13.92 15.7136 13.56 16.4336 13.336C17.1536 13.096 17.8896 12.976 18.6416 12.976C19.4896 12.976 20.2576 13.104 20.9456 13.36C21.6496 13.616 22.2496 13.968 22.7456 14.416C23.2576 14.864 23.6496 15.4 23.9216 16.024C24.2096 16.648 24.3536 17.328 24.3536 18.064C24.3536 18.608 24.2016 19.024 23.8976 19.312C23.5936 19.6 23.1696 19.784 22.6256 19.864L16.6976 20.752C16.8736 21.28 17.2336 21.68 17.7776 21.952C18.3216 22.208 18.9456 22.336 19.6496 22.336C20.3056 22.336 20.9216 22.256 21.4976 22.096C22.0896 21.92 22.5696 21.72 22.9376 21.496C23.1936 21.656 23.4096 21.88 23.5856 22.168C23.7616 22.456 23.8496 22.76 23.8496 23.08C23.8496 23.8 23.5136 24.336 22.8416 24.688C22.3296 24.96 21.7536 25.144 21.1136 25.24C20.4736 25.336 19.8736 25.384 19.3136 25.384ZM18.6416 15.952C18.2576 15.952 17.9216 16.016 17.6336 16.144C17.3616 16.272 17.1376 16.44 16.9616 16.648C16.7856 16.84 16.6496 17.064 16.5536 17.32C16.4736 17.56 16.4256 17.808 16.4096 18.064L20.5136 17.392C20.4656 17.072 20.2896 16.752 19.9856 16.432C19.6816 16.112 19.2336 15.952 18.6416 15.952ZM37.0215 19.168C37.0215 20.16 36.8695 21.048 36.5655 21.832C36.2615 22.6 35.8295 23.248 35.2695 23.776C34.7255 24.304 34.0695 24.704 33.3015 24.976C32.5335 25.248 31.6775 25.384 30.7335 25.384C29.7895 25.384 28.9335 25.24 28.1655 24.952C27.3975 24.664 26.7335 24.256 26.1735 23.728C25.6295 23.184 25.2055 22.528 24.9015 21.76C24.5975 20.992 24.4455 20.128 24.4455 19.168C24.4455 18.224 24.5975 17.368 24.9015 16.6C25.2055 15.832 25.6295 15.184 26.1735 14.656C26.7335 14.112 27.3975 13.696 28.1655 13.408C28.9335 13.12 29.7895 12.976 30.7335 12.976C31.6775 12.976 32.5335 13.128 33.3015 13.432C34.0695 13.72 34.7255 14.136 35.2695 14.68C35.8295 15.208 36.2615 15.856 36.5655 16.624C36.8695 17.392 37.0215 18.24 37.0215 19.168ZM28.6215 19.168C28.6215 20.144 28.8055 20.896 29.1735 21.424C29.5575 21.936 30.0855 22.192 30.7575 22.192C31.4295 22.192 31.9415 21.928 32.2935 21.4C32.6615 20.872 32.8455 20.128 32.8455 19.168C32.8455 18.208 32.6615 17.472 32.2935 16.96C31.9255 16.432 31.4055 16.168 30.7335 16.168C30.0615 16.168 29.5415 16.432 29.1735 16.96C28.8055 17.472 28.6215 18.208 28.6215 19.168ZM45.036 17.608C45.036 17.112 44.892 16.752 44.604 16.528C44.332 16.288 43.956 16.168 43.476 16.168C43.156 16.168 42.836 16.208 42.516 16.288C42.212 16.368 41.948 16.488 41.724 16.648V24.976C41.564 25.024 41.308 25.072 40.956 25.12C40.62 25.168 40.268 25.192 39.9 25.192C39.548 25.192 39.228 25.168 38.94 25.12C38.668 25.072 38.436 24.976 38.244 24.832C38.052 24.688 37.9 24.496 37.788 24.256C37.692 24 37.644 23.672 37.644 23.272V16.072C37.644 15.64 37.732 15.288 37.908 15.016C38.1 14.744 38.356 14.496 38.676 14.272C39.22 13.888 39.9 13.576 40.716 13.336C41.548 13.096 42.468 12.976 43.476 12.976C45.284 12.976 46.676 13.376 47.652 14.176C48.628 14.96 49.116 16.056 49.116 17.464V24.976C48.956 25.024 48.7 25.072 48.348 25.12C48.012 25.168 47.66 25.192 47.292 25.192C46.94 25.192 46.62 25.168 46.332 25.12C46.06 25.072 45.828 24.976 45.636 24.832C45.444 24.688 45.292 24.496 45.18 24.256C45.084 24 45.036 23.672 45.036 23.272V17.608ZM55.9562 12.976C56.8682 12.976 57.6922 13.096 58.4282 13.336C59.1802 13.56 59.8122 13.856 60.3242 14.224C60.6442 14.448 60.8922 14.696 61.0682 14.968C61.2602 15.24 61.3562 15.592 61.3562 16.024V24.424C61.3562 25.272 61.1962 26 60.8762 26.608C60.5562 27.232 60.1162 27.744 59.5562 28.144C59.0122 28.56 58.3642 28.864 57.6122 29.056C56.8762 29.248 56.0842 29.344 55.2362 29.344C53.7802 29.344 52.6362 29.144 51.8042 28.744C50.9722 28.36 50.5562 27.728 50.5562 26.848C50.5562 26.48 50.6282 26.152 50.7722 25.864C50.9322 25.592 51.1082 25.384 51.3002 25.24C51.7642 25.496 52.2842 25.712 52.8602 25.888C53.4522 26.064 54.0602 26.152 54.6842 26.152C55.5482 26.152 56.2362 26.008 56.7482 25.72C57.2602 25.432 57.5162 24.968 57.5162 24.328V23.944C56.8602 24.232 56.0602 24.376 55.1162 24.376C54.3962 24.376 53.7082 24.272 53.0522 24.064C52.4122 23.84 51.8442 23.504 51.3482 23.056C50.8682 22.592 50.4762 22 50.1722 21.28C49.8842 20.56 49.7402 19.704 49.7402 18.712C49.7402 17.736 49.8922 16.888 50.1962 16.168C50.5162 15.448 50.9482 14.856 51.4922 14.392C52.0522 13.912 52.7082 13.56 53.4602 13.336C54.2282 13.096 55.0602 12.976 55.9562 12.976ZM57.4442 16.456C57.3322 16.392 57.1642 16.328 56.9402 16.264C56.7322 16.2 56.4682 16.168 56.1482 16.168C55.3642 16.168 54.7722 16.392 54.3722 16.84C53.9882 17.272 53.7962 17.896 53.7962 18.712C53.7962 19.64 53.9882 20.312 54.3722 20.728C54.7722 21.128 55.2762 21.328 55.8842 21.328C56.5402 21.328 57.0602 21.176 57.4442 20.872V16.456ZM74.0374 24.976C73.8774 25.024 73.6214 25.072 73.2694 25.12C72.9334 25.168 72.5814 25.192 72.2134 25.192C71.8614 25.192 71.5414 25.168 71.2534 25.12C70.9814 25.072 70.7494 24.976 70.5574 24.832C70.3654 24.688 70.2134 24.496 70.1014 24.256C70.0054 24 69.9574 23.672 69.9574 23.272V17.944C69.9574 17.288 69.7894 16.832 69.4534 16.576C69.1334 16.304 68.7334 16.168 68.2534 16.168C67.9334 16.168 67.6294 16.208 67.3414 16.288C67.0534 16.368 66.8214 16.464 66.6454 16.576V24.976C66.4854 25.024 66.2294 25.072 65.8774 25.12C65.5414 25.168 65.1894 25.192 64.8214 25.192C64.4694 25.192 64.1494 25.168 63.8614 25.12C63.5894 25.072 63.3574 24.976 63.1654 24.832C62.9734 24.688 62.8214 24.496 62.7094 24.256C62.6134 24 62.5654 23.672 62.5654 23.272V9.352C62.7414 9.32 62.9974 9.28 63.3334 9.232C63.6854 9.168 64.0374 9.136 64.3894 9.136C64.7414 9.136 65.0534 9.16 65.3254 9.208C65.6134 9.256 65.8534 9.352 66.0454 9.496C66.2374 9.64 66.3814 9.84 66.4774 10.096C66.5894 10.336 66.6454 10.656 66.6454 11.056V13.408C66.8534 13.328 67.1654 13.24 67.5814 13.144C68.0134 13.032 68.4854 12.976 68.9974 12.976C70.5814 12.976 71.8134 13.376 72.6934 14.176C73.5894 14.96 74.0374 16.136 74.0374 17.704V24.976ZM87.2604 19.168C87.2604 20.16 87.1084 21.048 86.8044 21.832C86.5004 22.6 86.0684 23.248 85.5084 23.776C84.9644 24.304 84.3084 24.704 83.5404 24.976C82.7724 25.248 81.9164 25.384 80.9724 25.384C80.0284 25.384 79.1724 25.24 78.4044 24.952C77.6364 24.664 76.9724 24.256 76.4124 23.728C75.8684 23.184 75.4444 22.528 75.1404 21.76C74.8364 20.992 74.6844 20.128 74.6844 19.168C74.6844 18.224 74.8364 17.368 75.1404 16.6C75.4444 15.832 75.8684 15.184 76.4124 14.656C76.9724 14.112 77.6364 13.696 78.4044 13.408C79.1724 13.12 80.0284 12.976 80.9724 12.976C81.9164 12.976 82.7724 13.128 83.5404 13.432C84.3084 13.72 84.9644 14.136 85.5084 14.68C86.0684 15.208 86.5004 15.856 86.8044 16.624C87.1084 17.392 87.2604 18.24 87.2604 19.168ZM78.8604 19.168C78.8604 20.144 79.0444 20.896 79.4124 21.424C79.7964 21.936 80.3244 22.192 80.9964 22.192C81.6684 22.192 82.1804 21.928 82.5324 21.4C82.9004 20.872 83.0844 20.128 83.0844 19.168C83.0844 18.208 82.9004 17.472 82.5324 16.96C82.1644 16.432 81.6444 16.168 80.9724 16.168C80.3004 16.168 79.7804 16.432 79.4124 16.96C79.0444 17.472 78.8604 18.208 78.8604 19.168ZM86.9286 23.056C86.9286 22.384 87.1366 21.824 87.5526 21.376C87.9686 20.928 88.5366 20.704 89.2566 20.704C89.9766 20.704 90.5446 20.928 90.9606 21.376C91.3766 21.824 91.5846 22.384 91.5846 23.056C91.5846 23.728 91.3766 24.288 90.9606 24.736C90.5446 25.184 89.9766 25.408 89.2566 25.408C88.5366 25.408 87.9686 25.184 87.5526 24.736C87.1366 24.288 86.9286 23.728 86.9286 23.056ZM96.4873 21.88C96.6633 21.912 96.8793 21.944 97.1353 21.976C97.3913 21.992 97.6313 22 97.8553 22C98.3993 22 98.8953 21.92 99.3433 21.76C99.8073 21.6 100.199 21.352 100.519 21.016C100.855 20.68 101.111 20.248 101.287 19.72C101.479 19.176 101.575 18.528 101.575 17.776C101.575 16.336 101.239 15.256 100.567 14.536C99.8953 13.8 98.9993 13.432 97.8793 13.432C97.6553 13.432 97.4233 13.44 97.1833 13.456C96.9593 13.472 96.7273 13.496 96.4873 13.528V21.88ZM97.8313 25.384C97.5593 25.384 97.2473 25.376 96.8953 25.36C96.5433 25.344 96.1753 25.312 95.7913 25.264C95.4233 25.216 95.0473 25.152 94.6633 25.072C94.2953 25.008 93.9513 24.912 93.6313 24.784C92.7513 24.448 92.3113 23.864 92.3113 23.032V11.824C92.3113 11.488 92.3993 11.232 92.5753 11.056C92.7673 10.864 93.0233 10.712 93.3433 10.6C94.0313 10.376 94.7593 10.232 95.5273 10.168C96.2953 10.088 96.9833 10.048 97.5913 10.048C98.8393 10.048 99.9673 10.2 100.975 10.504C101.999 10.808 102.871 11.28 103.591 11.92C104.327 12.544 104.895 13.336 105.295 14.296C105.695 15.256 105.895 16.392 105.895 17.704C105.895 18.984 105.703 20.104 105.319 21.064C104.935 22.008 104.383 22.808 103.663 23.464C102.959 24.104 102.111 24.584 101.119 24.904C100.127 25.224 99.0313 25.384 97.8313 25.384ZM112.784 25.384C111.84 25.384 110.96 25.256 110.144 25C109.344 24.728 108.64 24.328 108.032 23.8C107.44 23.272 106.968 22.608 106.616 21.808C106.28 21.008 106.112 20.072 106.112 19C106.112 17.944 106.28 17.04 106.616 16.288C106.968 15.52 107.424 14.896 107.984 14.416C108.544 13.92 109.184 13.56 109.904 13.336C110.624 13.096 111.36 12.976 112.112 12.976C112.96 12.976 113.728 13.104 114.416 13.36C115.12 13.616 115.72 13.968 116.216 14.416C116.728 14.864 117.12 15.4 117.392 16.024C117.68 16.648 117.824 17.328 117.824 18.064C117.824 18.608 117.672 19.024 117.368 19.312C117.064 19.6 116.64 19.784 116.096 19.864L110.168 20.752C110.344 21.28 110.704 21.68 111.248 21.952C111.792 22.208 112.416 22.336 113.12 22.336C113.776 22.336 114.392 22.256 114.968 22.096C115.56 21.92 116.04 21.72 116.408 21.496C116.664 21.656 116.88 21.88 117.056 22.168C117.232 22.456 117.32 22.76 117.32 23.08C117.32 23.8 116.984 24.336 116.312 24.688C115.8 24.96 115.224 25.144 114.584 25.24C113.944 25.336 113.344 25.384 112.784 25.384ZM112.112 15.952C111.728 15.952 111.392 16.016 111.104 16.144C110.832 16.272 110.608 16.44 110.432 16.648C110.256 16.84 110.12 17.064 110.024 17.32C109.944 17.56 109.896 17.808 109.88 18.064L113.984 17.392C113.936 17.072 113.76 16.752 113.456 16.432C113.152 16.112 112.704 15.952 112.112 15.952ZM126.126 24.688C125.902 24.864 125.574 25.008 125.142 25.12C124.71 25.232 124.222 25.288 123.678 25.288C123.054 25.288 122.51 25.208 122.046 25.048C121.598 24.888 121.286 24.632 121.11 24.28C120.966 24.008 120.79 23.632 120.582 23.152C120.39 22.656 120.182 22.112 119.958 21.52C119.734 20.912 119.502 20.264 119.262 19.576C119.022 18.888 118.79 18.208 118.566 17.536C118.358 16.864 118.166 16.216 117.99 15.592C117.814 14.968 117.67 14.416 117.558 13.936C117.782 13.712 118.078 13.52 118.446 13.36C118.83 13.184 119.246 13.096 119.694 13.096C120.254 13.096 120.71 13.216 121.062 13.456C121.43 13.68 121.702 14.112 121.878 14.752L122.814 18.424C122.99 19.144 123.158 19.8 123.318 20.392C123.478 20.968 123.598 21.416 123.678 21.736H123.798C124.102 20.552 124.422 19.24 124.758 17.8C125.094 16.36 125.398 14.944 125.67 13.552C125.942 13.408 126.246 13.296 126.582 13.216C126.934 13.136 127.27 13.096 127.59 13.096C128.15 13.096 128.622 13.216 129.006 13.456C129.39 13.696 129.582 14.112 129.582 14.704C129.582 14.96 129.518 15.336 129.39 15.832C129.278 16.312 129.126 16.864 128.934 17.488C128.758 18.096 128.542 18.744 128.286 19.432C128.046 20.12 127.798 20.792 127.542 21.448C127.286 22.104 127.03 22.72 126.774 23.296C126.534 23.856 126.318 24.32 126.126 24.688Z" fill="#236CFF"/>
</svg>
