<svg width="118" height="24" viewBox="0 0 118 24" fill="none" xmlns="http://www.w3.org/2000/svg">
<path d="M2.01562 13.8516C3.375 14.9688 4.99219 15.5352 6.86719 15.5508C9.08594 15.5195 10.2109 14.7266 10.2422 13.1719C10.2578 11.8984 9.51562 11.1328 8.01562 10.875C7.32812 10.7812 6.57422 10.6758 5.75391 10.5586C4.28516 10.3164 3.16797 9.77344 2.40234 8.92969C1.61328 8.0625 1.21875 7.00781 1.21875 5.76562C1.21875 4.27344 1.71484 3.07031 2.70703 2.15625C3.66797 1.25 5.03125 0.789062 6.79688 0.773438C8.92188 0.820312 10.7695 1.41016 12.3398 2.54297L10.8984 4.67578C9.61719 3.83203 8.20703 3.39453 6.66797 3.36328C5.87109 3.36328 5.20703 3.5625 4.67578 3.96094C4.12109 4.375 3.83594 4.99219 3.82031 5.8125C3.82031 6.30469 4.01172 6.75 4.39453 7.14844C4.77734 7.55469 5.39062 7.83594 6.23438 7.99219C6.70312 8.07031 7.34375 8.16016 8.15625 8.26172C9.75781 8.48047 10.9414 9.05469 11.707 9.98438C12.4648 10.8984 12.8438 11.9609 12.8438 13.1719C12.7578 16.4375 10.7578 18.0938 6.84375 18.1406C4.3125 18.1406 2.13672 17.3594 0.316406 15.7969L2.01562 13.8516ZM23.4289 12.8438H15.8468C15.8468 13.8203 16.1281 14.5625 16.6906 15.0703C17.214 15.5859 17.9015 15.8438 18.7531 15.8438C19.7453 15.8438 20.632 15.4492 21.4132 14.6602L23.1828 16.1719C21.9406 17.5 20.4797 18.1562 18.8 18.1406C18.1593 18.1406 17.5343 18.0469 16.925 17.8594C16.6203 17.7578 16.3234 17.6211 16.0343 17.4492C15.7297 17.3008 15.4445 17.1172 15.1789 16.8984C14.6632 16.4453 14.2453 15.8125 13.925 15C13.5734 14.2188 13.3976 13.2031 13.3976 11.9531C13.3976 10.75 13.55 9.75 13.8547 8.95312C14.1593 8.14062 14.55 7.5 15.0265 7.03125C15.5109 6.55469 16.0539 6.21094 16.6554 6C17.2492 5.78906 17.8351 5.68359 18.4132 5.68359C19.8039 5.69922 20.9797 6.15625 21.9406 7.05469C22.9172 7.96875 23.4132 9.22656 23.4289 10.8281V12.8438ZM15.8468 10.8281H20.9797C20.9484 9.88281 20.6945 9.16797 20.2179 8.68359C19.7492 8.22266 19.1476 7.99219 18.4132 7.99219C17.6789 7.99219 17.0773 8.22266 16.6086 8.68359C16.1476 9.16797 15.8937 9.88281 15.8468 10.8281ZM24.0296 11.9062C24.0296 10.625 24.1351 9.64062 24.346 8.95312C24.5648 8.28125 24.9007 7.71484 25.3538 7.25391C25.6898 6.84766 26.1585 6.48438 26.7601 6.16406C27.3538 5.85938 28.1156 5.69922 29.0452 5.68359C30.0062 5.69922 30.7835 5.85938 31.3773 6.16406C31.9632 6.48438 32.4163 6.84766 32.7367 7.25391C33.221 7.71484 33.5648 8.28125 33.7679 8.95312C33.9632 9.64062 34.0609 10.625 34.0609 11.9062C34.0609 13.1875 33.9632 14.1641 33.7679 14.8359C33.5648 15.5078 33.221 16.0898 32.7367 16.582C32.5804 16.7617 32.389 16.9375 32.1624 17.1094C31.9593 17.3047 31.6976 17.4727 31.3773 17.6133C30.7835 17.9492 30.0062 18.125 29.0452 18.1406C28.1156 18.125 27.3538 17.9492 26.7601 17.6133C26.1585 17.3086 25.6898 16.9648 25.3538 16.582C24.9007 16.0898 24.5648 15.5078 24.346 14.8359C24.1351 14.1641 24.0296 13.1875 24.0296 11.9062ZM31.6117 11.9297C31.6117 11.0625 31.5726 10.4297 31.4945 10.0312C31.4163 9.64844 31.2562 9.3125 31.014 9.02344C30.8343 8.75 30.5687 8.53516 30.2171 8.37891C29.8812 8.21484 29.4906 8.13281 29.0452 8.13281C28.6312 8.13281 28.2484 8.21484 27.8968 8.37891C27.5609 8.53516 27.2874 8.75 27.0765 9.02344C26.8656 9.3125 26.7132 9.64844 26.6195 10.0312C26.5257 10.4297 26.4788 11.0547 26.4788 11.9062C26.4788 12.75 26.5257 13.3672 26.6195 13.7578C26.7132 14.1562 26.8656 14.5078 27.0765 14.8125C27.2874 15.0469 27.5609 15.2539 27.8968 15.4336C28.2484 15.6055 28.6312 15.6914 29.0452 15.6914C29.4906 15.6914 29.8812 15.6055 30.2171 15.4336C30.5687 15.2539 30.8343 15.0469 31.014 14.8125C31.2562 14.5078 31.4163 14.1562 31.4945 13.7578C31.5726 13.3672 31.6117 12.7578 31.6117 11.9297ZM35.2593 18V5.83594H37.7085V7.125H37.7554C38.5601 6.16406 39.6147 5.68359 40.9194 5.68359C41.9272 5.68359 42.8491 6.03906 43.6851 6.75C44.5132 7.46875 44.9468 8.52344 44.9858 9.91406V18H42.5366V10.7578C42.5366 9.90625 42.3101 9.25781 41.8569 8.8125C41.4116 8.35938 40.8374 8.13281 40.1343 8.13281C39.4312 8.13281 38.853 8.35938 38.3999 8.8125C37.939 9.25781 37.7085 9.90625 37.7085 10.7578V18H35.2593ZM53.6257 16.7227C52.821 17.6367 51.7741 18.1094 50.485 18.1406C49.696 18.125 49.0397 17.957 48.5163 17.6367C47.9694 17.332 47.5514 17.0039 47.2624 16.6523C46.9421 16.2539 46.7116 15.7656 46.571 15.1875C46.4225 14.6172 46.3483 13.5312 46.3483 11.9297C46.3483 10.2969 46.4225 9.19141 46.571 8.61328C46.7116 8.04297 46.9421 7.5625 47.2624 7.17188C47.5514 6.78906 47.9694 6.44531 48.5163 6.14062C49.0397 5.85156 49.696 5.69922 50.485 5.68359C51.696 5.68359 52.7428 6.16406 53.6257 7.125V5.83594H56.0749V17.707C56.0436 19.5352 55.5163 20.8789 54.4928 21.7383C53.4616 22.6211 52.2272 23.0625 50.7897 23.0625C49.1413 23.0312 47.735 22.3516 46.571 21.0234L48.4694 19.5117C48.7819 19.8008 49.1413 20.0469 49.5475 20.25C49.9616 20.4766 50.3913 20.5977 50.8366 20.6133C51.6725 20.6133 52.3444 20.3828 52.8522 19.9219C53.3522 19.4531 53.61 18.8047 53.6257 17.9766V16.7227ZM48.7975 11.9297C48.7975 12.8594 48.8288 13.5 48.8913 13.8516C48.946 14.2188 49.0749 14.5234 49.278 14.7656C49.4421 14.9844 49.6921 15.1836 50.028 15.3633C50.3483 15.582 50.7467 15.6914 51.2233 15.6914C51.6999 15.6914 52.0983 15.582 52.4186 15.3633C52.7389 15.1836 52.9811 14.9844 53.1452 14.7656C53.3483 14.5234 53.485 14.2188 53.5553 13.8516C53.6022 13.5 53.6257 12.8594 53.6257 11.9297C53.6257 10.9844 53.6022 10.3281 53.5553 9.96094C53.485 9.59375 53.3483 9.29688 53.1452 9.07031C52.9811 8.85156 52.7389 8.63672 52.4186 8.42578C52.0983 8.24609 51.6999 8.14844 51.2233 8.13281C50.7467 8.14844 50.3483 8.24609 50.028 8.42578C49.6921 8.63672 49.4421 8.85156 49.278 9.07031C49.0749 9.29688 48.946 9.59375 48.8913 9.96094C48.8288 10.3281 48.7975 10.9844 48.7975 11.9297ZM57.8827 18V0.914062H60.3319V7.125H60.3787C61.1834 6.16406 62.2381 5.68359 63.5428 5.68359C64.5506 5.68359 65.4725 6.03906 66.3084 6.75C67.1366 7.46875 67.5702 8.52344 67.6092 9.91406V18H65.16V10.7578C65.16 9.90625 64.9334 9.25781 64.4803 8.8125C64.035 8.35938 63.4608 8.13281 62.7577 8.13281C62.0545 8.13281 61.4764 8.35938 61.0233 8.8125C60.5623 9.25781 60.3319 9.90625 60.3319 10.7578V18H57.8827ZM68.8076 11.9062C68.8076 10.625 68.9131 9.64062 69.124 8.95312C69.3428 8.28125 69.6787 7.71484 70.1318 7.25391C70.4678 6.84766 70.9365 6.48438 71.5381 6.16406C72.1318 5.85938 72.8936 5.69922 73.8232 5.68359C74.7842 5.69922 75.5615 5.85938 76.1553 6.16406C76.7412 6.48438 77.1943 6.84766 77.5147 7.25391C77.999 7.71484 78.3428 8.28125 78.5459 8.95312C78.7412 9.64062 78.8389 10.625 78.8389 11.9062C78.8389 13.1875 78.7412 14.1641 78.5459 14.8359C78.3428 15.5078 77.999 16.0898 77.5147 16.582C77.3584 16.7617 77.167 16.9375 76.9404 17.1094C76.7373 17.3047 76.4756 17.4727 76.1553 17.6133C75.5615 17.9492 74.7842 18.125 73.8232 18.1406C72.8936 18.125 72.1318 17.9492 71.5381 17.6133C70.9365 17.3086 70.4678 16.9648 70.1318 16.582C69.6787 16.0898 69.3428 15.5078 69.124 14.8359C68.9131 14.1641 68.8076 13.1875 68.8076 11.9062ZM76.3897 11.9297C76.3897 11.0625 76.3506 10.4297 76.2725 10.0312C76.1943 9.64844 76.0342 9.3125 75.792 9.02344C75.6123 8.75 75.3467 8.53516 74.9951 8.37891C74.6592 8.21484 74.2686 8.13281 73.8232 8.13281C73.4092 8.13281 73.0264 8.21484 72.6748 8.37891C72.3389 8.53516 72.0654 8.75 71.8545 9.02344C71.6436 9.3125 71.4912 9.64844 71.3975 10.0312C71.3037 10.4297 71.2568 11.0547 71.2568 11.9062C71.2568 12.75 71.3037 13.3672 71.3975 13.7578C71.4912 14.1562 71.6436 14.5078 71.8545 14.8125C72.0654 15.0469 72.3389 15.2539 72.6748 15.4336C73.0264 15.6055 73.4092 15.6914 73.8232 15.6914C74.2686 15.6914 74.6592 15.6055 74.9951 15.4336C75.3467 15.2539 75.6123 15.0469 75.792 14.8125C76.0342 14.5078 76.1943 14.1562 76.2725 13.7578C76.3506 13.3672 76.3897 12.7578 76.3897 11.9297ZM80.1076 18V15.5508H82.5568V18H80.1076ZM84.6576 18V0.914062H90.6341C92.9466 0.929687 94.681 1.89062 95.8372 3.79688C96.2513 4.4375 96.513 5.10938 96.6224 5.8125C96.7083 6.51562 96.7513 7.73047 96.7513 9.45703C96.7513 11.293 96.6849 12.5742 96.5521 13.3008C96.4896 13.668 96.3958 13.9961 96.2708 14.2852C96.138 14.5664 95.9779 14.8594 95.7904 15.1641C95.2904 15.9688 94.5951 16.6328 93.7044 17.1562C92.8216 17.7188 91.7396 18 90.4583 18H84.6576ZM87.2474 3.36328V15.5508H90.3412C91.7943 15.5508 92.849 15.0547 93.5052 14.0625C93.7943 13.6953 93.9779 13.2305 94.056 12.668C94.1263 12.1133 94.1615 11.0742 94.1615 9.55078C94.1615 8.06641 94.1263 7.00391 94.056 6.36328C93.9622 5.72266 93.7396 5.20312 93.388 4.80469C92.6693 3.8125 91.6537 3.33203 90.3412 3.36328H87.2474ZM107.618 12.8438H100.036C100.036 13.8203 100.317 14.5625 100.879 15.0703C101.403 15.5859 102.09 15.8438 102.942 15.8438C103.934 15.8438 104.821 15.4492 105.602 14.6602L107.372 16.1719C106.129 17.5 104.668 18.1562 102.989 18.1406C102.348 18.1406 101.723 18.0469 101.114 17.8594C100.809 17.7578 100.512 17.6211 100.223 17.4492C99.9185 17.3008 99.6333 17.1172 99.3677 16.8984C98.8521 16.4453 98.4341 15.8125 98.1138 15C97.7622 14.2188 97.5864 13.2031 97.5864 11.9531C97.5864 10.75 97.7388 9.75 98.0435 8.95312C98.3482 8.14062 98.7388 7.5 99.2153 7.03125C99.6997 6.55469 100.243 6.21094 100.844 6C101.438 5.78906 102.024 5.68359 102.602 5.68359C103.993 5.69922 105.168 6.15625 106.129 7.05469C107.106 7.96875 107.602 9.22656 107.618 10.8281V12.8438ZM100.036 10.8281H105.168C105.137 9.88281 104.883 9.16797 104.407 8.68359C103.938 8.22266 103.336 7.99219 102.602 7.99219C101.868 7.99219 101.266 8.22266 100.797 8.68359C100.336 9.16797 100.083 9.88281 100.036 10.8281ZM111.418 18L106.953 5.83594H109.543L112.402 14.3555H112.449L115.297 5.83594H117.898L113.433 18H111.418Z" fill="#236CFF"/>
</svg>
