<svg width="118" height="24" viewBox="0 0 118 24" fill="none" xmlns="http://www.w3.org/2000/svg">
<mask id="path-1-outside-1_1841_3555" maskUnits="userSpaceOnUse" x="-1" y="0" width="120" height="24" fill="black">
<rect fill="white" x="-1" width="120" height="24"/>
<path d="M2.01562 13.8516C3.375 14.9688 4.99219 15.5352 6.86719 15.5508C9.08594 15.5195 10.2109 14.7266 10.2422 13.1719C10.2578 11.8984 9.51562 11.1328 8.01562 10.875C7.32812 10.7812 6.57422 10.6758 5.75391 10.5586C4.28516 10.3164 3.16797 9.77344 2.40234 8.92969C1.61328 8.0625 1.21875 7.00781 1.21875 5.76562C1.21875 4.27344 1.71484 3.07031 2.70703 2.15625C3.66797 1.25 5.03125 0.789062 6.79688 0.773438C8.92188 0.820312 10.7695 1.41016 12.3398 2.54297L10.8984 4.67578C9.61719 3.83203 8.20703 3.39453 6.66797 3.36328C5.87109 3.36328 5.20703 3.5625 4.67578 3.96094C4.12109 4.375 3.83594 4.99219 3.82031 5.8125C3.82031 6.30469 4.01172 6.75 4.39453 7.14844C4.77734 7.55469 5.39062 7.83594 6.23438 7.99219C6.70312 8.07031 7.34375 8.16016 8.15625 8.26172C9.75781 8.48047 10.9414 9.05469 11.707 9.98438C12.4648 10.8984 12.8438 11.9609 12.8438 13.1719C12.7578 16.4375 10.7578 18.0938 6.84375 18.1406C4.3125 18.1406 2.13672 17.3594 0.316406 15.7969L2.01562 13.8516ZM23.4289 12.8438H15.8468C15.8468 13.8203 16.1281 14.5625 16.6906 15.0703C17.214 15.5859 17.9015 15.8438 18.7531 15.8438C19.7453 15.8438 20.632 15.4492 21.4132 14.6602L23.1828 16.1719C21.9406 17.5 20.4797 18.1562 18.8 18.1406C18.1593 18.1406 17.5343 18.0469 16.925 17.8594C16.6203 17.7578 16.3234 17.6211 16.0343 17.4492C15.7297 17.3008 15.4445 17.1172 15.1789 16.8984C14.6632 16.4453 14.2453 15.8125 13.925 15C13.5734 14.2188 13.3976 13.2031 13.3976 11.9531C13.3976 10.75 13.55 9.75 13.8547 8.95312C14.1593 8.14062 14.55 7.5 15.0265 7.03125C15.5109 6.55469 16.0539 6.21094 16.6554 6C17.2492 5.78906 17.8351 5.68359 18.4132 5.68359C19.8039 5.69922 20.9797 6.15625 21.9406 7.05469C22.9172 7.96875 23.4132 9.22656 23.4289 10.8281V12.8438ZM15.8468 10.8281H20.9797C20.9484 9.88281 20.6945 9.16797 20.2179 8.68359C19.7492 8.22266 19.1476 7.99219 18.4132 7.99219C17.6789 7.99219 17.0773 8.22266 16.6086 8.68359C16.1476 9.16797 15.8937 9.88281 15.8468 10.8281ZM24.0296 11.9062C24.0296 10.625 24.1351 9.64062 24.346 8.95312C24.5648 8.28125 24.9007 7.71484 25.3538 7.25391C25.6898 6.84766 26.1585 6.48438 26.7601 6.16406C27.3538 5.85938 28.1156 5.69922 29.0452 5.68359C30.0062 5.69922 30.7835 5.85938 31.3773 6.16406C31.9632 6.48438 32.4163 6.84766 32.7367 7.25391C33.221 7.71484 33.5648 8.28125 33.7679 8.95312C33.9632 9.64062 34.0609 10.625 34.0609 11.9062C34.0609 13.1875 33.9632 14.1641 33.7679 14.8359C33.5648 15.5078 33.221 16.0898 32.7367 16.582C32.5804 16.7617 32.389 16.9375 32.1624 17.1094C31.9593 17.3047 31.6976 17.4727 31.3773 17.6133C30.7835 17.9492 30.0062 18.125 29.0452 18.1406C28.1156 18.125 27.3538 17.9492 26.7601 17.6133C26.1585 17.3086 25.6898 16.9648 25.3538 16.582C24.9007 16.0898 24.5648 15.5078 24.346 14.8359C24.1351 14.1641 24.0296 13.1875 24.0296 11.9062ZM31.6117 11.9297C31.6117 11.0625 31.5726 10.4297 31.4945 10.0312C31.4163 9.64844 31.2562 9.3125 31.014 9.02344C30.8343 8.75 30.5687 8.53516 30.2171 8.37891C29.8812 8.21484 29.4906 8.13281 29.0452 8.13281C28.6312 8.13281 28.2484 8.21484 27.8968 8.37891C27.5609 8.53516 27.2874 8.75 27.0765 9.02344C26.8656 9.3125 26.7132 9.64844 26.6195 10.0312C26.5257 10.4297 26.4788 11.0547 26.4788 11.9062C26.4788 12.75 26.5257 13.3672 26.6195 13.7578C26.7132 14.1562 26.8656 14.5078 27.0765 14.8125C27.2874 15.0469 27.5609 15.2539 27.8968 15.4336C28.2484 15.6055 28.6312 15.6914 29.0452 15.6914C29.4906 15.6914 29.8812 15.6055 30.2171 15.4336C30.5687 15.2539 30.8343 15.0469 31.014 14.8125C31.2562 14.5078 31.4163 14.1562 31.4945 13.7578C31.5726 13.3672 31.6117 12.7578 31.6117 11.9297ZM35.2593 18V5.83594H37.7085V7.125H37.7554C38.5601 6.16406 39.6147 5.68359 40.9194 5.68359C41.9272 5.68359 42.8491 6.03906 43.6851 6.75C44.5132 7.46875 44.9468 8.52344 44.9858 9.91406V18H42.5366V10.7578C42.5366 9.90625 42.3101 9.25781 41.8569 8.8125C41.4116 8.35938 40.8374 8.13281 40.1343 8.13281C39.4312 8.13281 38.853 8.35938 38.3999 8.8125C37.939 9.25781 37.7085 9.90625 37.7085 10.7578V18H35.2593ZM53.6257 16.7227C52.821 17.6367 51.7741 18.1094 50.485 18.1406C49.696 18.125 49.0397 17.957 48.5163 17.6367C47.9694 17.332 47.5514 17.0039 47.2624 16.6523C46.9421 16.2539 46.7116 15.7656 46.571 15.1875C46.4225 14.6172 46.3483 13.5312 46.3483 11.9297C46.3483 10.2969 46.4225 9.19141 46.571 8.61328C46.7116 8.04297 46.9421 7.5625 47.2624 7.17188C47.5514 6.78906 47.9694 6.44531 48.5163 6.14062C49.0397 5.85156 49.696 5.69922 50.485 5.68359C51.696 5.68359 52.7428 6.16406 53.6257 7.125V5.83594H56.0749V17.707C56.0436 19.5352 55.5163 20.8789 54.4928 21.7383C53.4616 22.6211 52.2272 23.0625 50.7897 23.0625C49.1413 23.0312 47.735 22.3516 46.571 21.0234L48.4694 19.5117C48.7819 19.8008 49.1413 20.0469 49.5475 20.25C49.9616 20.4766 50.3913 20.5977 50.8366 20.6133C51.6725 20.6133 52.3444 20.3828 52.8522 19.9219C53.3522 19.4531 53.61 18.8047 53.6257 17.9766V16.7227ZM48.7975 11.9297C48.7975 12.8594 48.8288 13.5 48.8913 13.8516C48.946 14.2188 49.0749 14.5234 49.278 14.7656C49.4421 14.9844 49.6921 15.1836 50.028 15.3633C50.3483 15.582 50.7467 15.6914 51.2233 15.6914C51.6999 15.6914 52.0983 15.582 52.4186 15.3633C52.7389 15.1836 52.9811 14.9844 53.1452 14.7656C53.3483 14.5234 53.485 14.2188 53.5553 13.8516C53.6022 13.5 53.6257 12.8594 53.6257 11.9297C53.6257 10.9844 53.6022 10.3281 53.5553 9.96094C53.485 9.59375 53.3483 9.29688 53.1452 9.07031C52.9811 8.85156 52.7389 8.63672 52.4186 8.42578C52.0983 8.24609 51.6999 8.14844 51.2233 8.13281C50.7467 8.14844 50.3483 8.24609 50.028 8.42578C49.6921 8.63672 49.4421 8.85156 49.278 9.07031C49.0749 9.29688 48.946 9.59375 48.8913 9.96094C48.8288 10.3281 48.7975 10.9844 48.7975 11.9297ZM57.8827 18V0.914062H60.3319V7.125H60.3787C61.1834 6.16406 62.2381 5.68359 63.5428 5.68359C64.5506 5.68359 65.4725 6.03906 66.3084 6.75C67.1366 7.46875 67.5702 8.52344 67.6092 9.91406V18H65.16V10.7578C65.16 9.90625 64.9334 9.25781 64.4803 8.8125C64.035 8.35938 63.4608 8.13281 62.7577 8.13281C62.0545 8.13281 61.4764 8.35938 61.0233 8.8125C60.5623 9.25781 60.3319 9.90625 60.3319 10.7578V18H57.8827ZM68.8076 11.9062C68.8076 10.625 68.9131 9.64062 69.124 8.95312C69.3428 8.28125 69.6787 7.71484 70.1318 7.25391C70.4678 6.84766 70.9365 6.48438 71.5381 6.16406C72.1318 5.85938 72.8936 5.69922 73.8232 5.68359C74.7842 5.69922 75.5615 5.85938 76.1553 6.16406C76.7412 6.48438 77.1943 6.84766 77.5147 7.25391C77.999 7.71484 78.3428 8.28125 78.5459 8.95312C78.7412 9.64062 78.8389 10.625 78.8389 11.9062C78.8389 13.1875 78.7412 14.1641 78.5459 14.8359C78.3428 15.5078 77.999 16.0898 77.5147 16.582C77.3584 16.7617 77.167 16.9375 76.9404 17.1094C76.7373 17.3047 76.4756 17.4727 76.1553 17.6133C75.5615 17.9492 74.7842 18.125 73.8232 18.1406C72.8936 18.125 72.1318 17.9492 71.5381 17.6133C70.9365 17.3086 70.4678 16.9648 70.1318 16.582C69.6787 16.0898 69.3428 15.5078 69.124 14.8359C68.9131 14.1641 68.8076 13.1875 68.8076 11.9062ZM76.3897 11.9297C76.3897 11.0625 76.3506 10.4297 76.2725 10.0312C76.1943 9.64844 76.0342 9.3125 75.792 9.02344C75.6123 8.75 75.3467 8.53516 74.9951 8.37891C74.6592 8.21484 74.2686 8.13281 73.8232 8.13281C73.4092 8.13281 73.0264 8.21484 72.6748 8.37891C72.3389 8.53516 72.0654 8.75 71.8545 9.02344C71.6436 9.3125 71.4912 9.64844 71.3975 10.0312C71.3037 10.4297 71.2568 11.0547 71.2568 11.9062C71.2568 12.75 71.3037 13.3672 71.3975 13.7578C71.4912 14.1562 71.6436 14.5078 71.8545 14.8125C72.0654 15.0469 72.3389 15.2539 72.6748 15.4336C73.0264 15.6055 73.4092 15.6914 73.8232 15.6914C74.2686 15.6914 74.6592 15.6055 74.9951 15.4336C75.3467 15.2539 75.6123 15.0469 75.792 14.8125C76.0342 14.5078 76.1943 14.1562 76.2725 13.7578C76.3506 13.3672 76.3897 12.7578 76.3897 11.9297ZM80.1076 18V15.5508H82.5568V18H80.1076ZM84.6576 18V0.914062H90.6341C92.9466 0.929687 94.681 1.89062 95.8372 3.79688C96.2513 4.4375 96.513 5.10938 96.6224 5.8125C96.7083 6.51562 96.7513 7.73047 96.7513 9.45703C96.7513 11.293 96.6849 12.5742 96.5521 13.3008C96.4896 13.668 96.3958 13.9961 96.2708 14.2852C96.138 14.5664 95.9779 14.8594 95.7904 15.1641C95.2904 15.9688 94.5951 16.6328 93.7044 17.1562C92.8216 17.7188 91.7396 18 90.4583 18H84.6576ZM87.2474 3.36328V15.5508H90.3412C91.7943 15.5508 92.849 15.0547 93.5052 14.0625C93.7943 13.6953 93.9779 13.2305 94.056 12.668C94.1263 12.1133 94.1615 11.0742 94.1615 9.55078C94.1615 8.06641 94.1263 7.00391 94.056 6.36328C93.9622 5.72266 93.7396 5.20312 93.388 4.80469C92.6693 3.8125 91.6537 3.33203 90.3412 3.36328H87.2474ZM107.618 12.8438H100.036C100.036 13.8203 100.317 14.5625 100.879 15.0703C101.403 15.5859 102.09 15.8438 102.942 15.8438C103.934 15.8438 104.821 15.4492 105.602 14.6602L107.372 16.1719C106.129 17.5 104.668 18.1562 102.989 18.1406C102.348 18.1406 101.723 18.0469 101.114 17.8594C100.809 17.7578 100.512 17.6211 100.223 17.4492C99.9185 17.3008 99.6333 17.1172 99.3677 16.8984C98.8521 16.4453 98.4341 15.8125 98.1138 15C97.7622 14.2188 97.5864 13.2031 97.5864 11.9531C97.5864 10.75 97.7388 9.75 98.0435 8.95312C98.3482 8.14062 98.7388 7.5 99.2153 7.03125C99.6997 6.55469 100.243 6.21094 100.844 6C101.438 5.78906 102.024 5.68359 102.602 5.68359C103.993 5.69922 105.168 6.15625 106.129 7.05469C107.106 7.96875 107.602 9.22656 107.618 10.8281V12.8438ZM100.036 10.8281H105.168C105.137 9.88281 104.883 9.16797 104.407 8.68359C103.938 8.22266 103.336 7.99219 102.602 7.99219C101.868 7.99219 101.266 8.22266 100.797 8.68359C100.336 9.16797 100.083 9.88281 100.036 10.8281ZM111.418 18L106.953 5.83594H109.543L112.402 14.3555H112.449L115.297 5.83594H117.898L113.433 18H111.418Z"/>
</mask>
<path d="M2.01562 13.8516C3.375 14.9688 4.99219 15.5352 6.86719 15.5508C9.08594 15.5195 10.2109 14.7266 10.2422 13.1719C10.2578 11.8984 9.51562 11.1328 8.01562 10.875C7.32812 10.7812 6.57422 10.6758 5.75391 10.5586C4.28516 10.3164 3.16797 9.77344 2.40234 8.92969C1.61328 8.0625 1.21875 7.00781 1.21875 5.76562C1.21875 4.27344 1.71484 3.07031 2.70703 2.15625C3.66797 1.25 5.03125 0.789062 6.79688 0.773438C8.92188 0.820312 10.7695 1.41016 12.3398 2.54297L10.8984 4.67578C9.61719 3.83203 8.20703 3.39453 6.66797 3.36328C5.87109 3.36328 5.20703 3.5625 4.67578 3.96094C4.12109 4.375 3.83594 4.99219 3.82031 5.8125C3.82031 6.30469 4.01172 6.75 4.39453 7.14844C4.77734 7.55469 5.39062 7.83594 6.23438 7.99219C6.70312 8.07031 7.34375 8.16016 8.15625 8.26172C9.75781 8.48047 10.9414 9.05469 11.707 9.98438C12.4648 10.8984 12.8438 11.9609 12.8438 13.1719C12.7578 16.4375 10.7578 18.0938 6.84375 18.1406C4.3125 18.1406 2.13672 17.3594 0.316406 15.7969L2.01562 13.8516ZM23.4289 12.8438H15.8468C15.8468 13.8203 16.1281 14.5625 16.6906 15.0703C17.214 15.5859 17.9015 15.8438 18.7531 15.8438C19.7453 15.8438 20.632 15.4492 21.4132 14.6602L23.1828 16.1719C21.9406 17.5 20.4797 18.1562 18.8 18.1406C18.1593 18.1406 17.5343 18.0469 16.925 17.8594C16.6203 17.7578 16.3234 17.6211 16.0343 17.4492C15.7297 17.3008 15.4445 17.1172 15.1789 16.8984C14.6632 16.4453 14.2453 15.8125 13.925 15C13.5734 14.2188 13.3976 13.2031 13.3976 11.9531C13.3976 10.75 13.55 9.75 13.8547 8.95312C14.1593 8.14062 14.55 7.5 15.0265 7.03125C15.5109 6.55469 16.0539 6.21094 16.6554 6C17.2492 5.78906 17.8351 5.68359 18.4132 5.68359C19.8039 5.69922 20.9797 6.15625 21.9406 7.05469C22.9172 7.96875 23.4132 9.22656 23.4289 10.8281V12.8438ZM15.8468 10.8281H20.9797C20.9484 9.88281 20.6945 9.16797 20.2179 8.68359C19.7492 8.22266 19.1476 7.99219 18.4132 7.99219C17.6789 7.99219 17.0773 8.22266 16.6086 8.68359C16.1476 9.16797 15.8937 9.88281 15.8468 10.8281ZM24.0296 11.9062C24.0296 10.625 24.1351 9.64062 24.346 8.95312C24.5648 8.28125 24.9007 7.71484 25.3538 7.25391C25.6898 6.84766 26.1585 6.48438 26.7601 6.16406C27.3538 5.85938 28.1156 5.69922 29.0452 5.68359C30.0062 5.69922 30.7835 5.85938 31.3773 6.16406C31.9632 6.48438 32.4163 6.84766 32.7367 7.25391C33.221 7.71484 33.5648 8.28125 33.7679 8.95312C33.9632 9.64062 34.0609 10.625 34.0609 11.9062C34.0609 13.1875 33.9632 14.1641 33.7679 14.8359C33.5648 15.5078 33.221 16.0898 32.7367 16.582C32.5804 16.7617 32.389 16.9375 32.1624 17.1094C31.9593 17.3047 31.6976 17.4727 31.3773 17.6133C30.7835 17.9492 30.0062 18.125 29.0452 18.1406C28.1156 18.125 27.3538 17.9492 26.7601 17.6133C26.1585 17.3086 25.6898 16.9648 25.3538 16.582C24.9007 16.0898 24.5648 15.5078 24.346 14.8359C24.1351 14.1641 24.0296 13.1875 24.0296 11.9062ZM31.6117 11.9297C31.6117 11.0625 31.5726 10.4297 31.4945 10.0312C31.4163 9.64844 31.2562 9.3125 31.014 9.02344C30.8343 8.75 30.5687 8.53516 30.2171 8.37891C29.8812 8.21484 29.4906 8.13281 29.0452 8.13281C28.6312 8.13281 28.2484 8.21484 27.8968 8.37891C27.5609 8.53516 27.2874 8.75 27.0765 9.02344C26.8656 9.3125 26.7132 9.64844 26.6195 10.0312C26.5257 10.4297 26.4788 11.0547 26.4788 11.9062C26.4788 12.75 26.5257 13.3672 26.6195 13.7578C26.7132 14.1562 26.8656 14.5078 27.0765 14.8125C27.2874 15.0469 27.5609 15.2539 27.8968 15.4336C28.2484 15.6055 28.6312 15.6914 29.0452 15.6914C29.4906 15.6914 29.8812 15.6055 30.2171 15.4336C30.5687 15.2539 30.8343 15.0469 31.014 14.8125C31.2562 14.5078 31.4163 14.1562 31.4945 13.7578C31.5726 13.3672 31.6117 12.7578 31.6117 11.9297ZM35.2593 18V5.83594H37.7085V7.125H37.7554C38.5601 6.16406 39.6147 5.68359 40.9194 5.68359C41.9272 5.68359 42.8491 6.03906 43.6851 6.75C44.5132 7.46875 44.9468 8.52344 44.9858 9.91406V18H42.5366V10.7578C42.5366 9.90625 42.3101 9.25781 41.8569 8.8125C41.4116 8.35938 40.8374 8.13281 40.1343 8.13281C39.4312 8.13281 38.853 8.35938 38.3999 8.8125C37.939 9.25781 37.7085 9.90625 37.7085 10.7578V18H35.2593ZM53.6257 16.7227C52.821 17.6367 51.7741 18.1094 50.485 18.1406C49.696 18.125 49.0397 17.957 48.5163 17.6367C47.9694 17.332 47.5514 17.0039 47.2624 16.6523C46.9421 16.2539 46.7116 15.7656 46.571 15.1875C46.4225 14.6172 46.3483 13.5312 46.3483 11.9297C46.3483 10.2969 46.4225 9.19141 46.571 8.61328C46.7116 8.04297 46.9421 7.5625 47.2624 7.17188C47.5514 6.78906 47.9694 6.44531 48.5163 6.14062C49.0397 5.85156 49.696 5.69922 50.485 5.68359C51.696 5.68359 52.7428 6.16406 53.6257 7.125V5.83594H56.0749V17.707C56.0436 19.5352 55.5163 20.8789 54.4928 21.7383C53.4616 22.6211 52.2272 23.0625 50.7897 23.0625C49.1413 23.0312 47.735 22.3516 46.571 21.0234L48.4694 19.5117C48.7819 19.8008 49.1413 20.0469 49.5475 20.25C49.9616 20.4766 50.3913 20.5977 50.8366 20.6133C51.6725 20.6133 52.3444 20.3828 52.8522 19.9219C53.3522 19.4531 53.61 18.8047 53.6257 17.9766V16.7227ZM48.7975 11.9297C48.7975 12.8594 48.8288 13.5 48.8913 13.8516C48.946 14.2188 49.0749 14.5234 49.278 14.7656C49.4421 14.9844 49.6921 15.1836 50.028 15.3633C50.3483 15.582 50.7467 15.6914 51.2233 15.6914C51.6999 15.6914 52.0983 15.582 52.4186 15.3633C52.7389 15.1836 52.9811 14.9844 53.1452 14.7656C53.3483 14.5234 53.485 14.2188 53.5553 13.8516C53.6022 13.5 53.6257 12.8594 53.6257 11.9297C53.6257 10.9844 53.6022 10.3281 53.5553 9.96094C53.485 9.59375 53.3483 9.29688 53.1452 9.07031C52.9811 8.85156 52.7389 8.63672 52.4186 8.42578C52.0983 8.24609 51.6999 8.14844 51.2233 8.13281C50.7467 8.14844 50.3483 8.24609 50.028 8.42578C49.6921 8.63672 49.4421 8.85156 49.278 9.07031C49.0749 9.29688 48.946 9.59375 48.8913 9.96094C48.8288 10.3281 48.7975 10.9844 48.7975 11.9297ZM57.8827 18V0.914062H60.3319V7.125H60.3787C61.1834 6.16406 62.2381 5.68359 63.5428 5.68359C64.5506 5.68359 65.4725 6.03906 66.3084 6.75C67.1366 7.46875 67.5702 8.52344 67.6092 9.91406V18H65.16V10.7578C65.16 9.90625 64.9334 9.25781 64.4803 8.8125C64.035 8.35938 63.4608 8.13281 62.7577 8.13281C62.0545 8.13281 61.4764 8.35938 61.0233 8.8125C60.5623 9.25781 60.3319 9.90625 60.3319 10.7578V18H57.8827ZM68.8076 11.9062C68.8076 10.625 68.9131 9.64062 69.124 8.95312C69.3428 8.28125 69.6787 7.71484 70.1318 7.25391C70.4678 6.84766 70.9365 6.48438 71.5381 6.16406C72.1318 5.85938 72.8936 5.69922 73.8232 5.68359C74.7842 5.69922 75.5615 5.85938 76.1553 6.16406C76.7412 6.48438 77.1943 6.84766 77.5147 7.25391C77.999 7.71484 78.3428 8.28125 78.5459 8.95312C78.7412 9.64062 78.8389 10.625 78.8389 11.9062C78.8389 13.1875 78.7412 14.1641 78.5459 14.8359C78.3428 15.5078 77.999 16.0898 77.5147 16.582C77.3584 16.7617 77.167 16.9375 76.9404 17.1094C76.7373 17.3047 76.4756 17.4727 76.1553 17.6133C75.5615 17.9492 74.7842 18.125 73.8232 18.1406C72.8936 18.125 72.1318 17.9492 71.5381 17.6133C70.9365 17.3086 70.4678 16.9648 70.1318 16.582C69.6787 16.0898 69.3428 15.5078 69.124 14.8359C68.9131 14.1641 68.8076 13.1875 68.8076 11.9062ZM76.3897 11.9297C76.3897 11.0625 76.3506 10.4297 76.2725 10.0312C76.1943 9.64844 76.0342 9.3125 75.792 9.02344C75.6123 8.75 75.3467 8.53516 74.9951 8.37891C74.6592 8.21484 74.2686 8.13281 73.8232 8.13281C73.4092 8.13281 73.0264 8.21484 72.6748 8.37891C72.3389 8.53516 72.0654 8.75 71.8545 9.02344C71.6436 9.3125 71.4912 9.64844 71.3975 10.0312C71.3037 10.4297 71.2568 11.0547 71.2568 11.9062C71.2568 12.75 71.3037 13.3672 71.3975 13.7578C71.4912 14.1562 71.6436 14.5078 71.8545 14.8125C72.0654 15.0469 72.3389 15.2539 72.6748 15.4336C73.0264 15.6055 73.4092 15.6914 73.8232 15.6914C74.2686 15.6914 74.6592 15.6055 74.9951 15.4336C75.3467 15.2539 75.6123 15.0469 75.792 14.8125C76.0342 14.5078 76.1943 14.1562 76.2725 13.7578C76.3506 13.3672 76.3897 12.7578 76.3897 11.9297ZM80.1076 18V15.5508H82.5568V18H80.1076ZM84.6576 18V0.914062H90.6341C92.9466 0.929687 94.681 1.89062 95.8372 3.79688C96.2513 4.4375 96.513 5.10938 96.6224 5.8125C96.7083 6.51562 96.7513 7.73047 96.7513 9.45703C96.7513 11.293 96.6849 12.5742 96.5521 13.3008C96.4896 13.668 96.3958 13.9961 96.2708 14.2852C96.138 14.5664 95.9779 14.8594 95.7904 15.1641C95.2904 15.9688 94.5951 16.6328 93.7044 17.1562C92.8216 17.7188 91.7396 18 90.4583 18H84.6576ZM87.2474 3.36328V15.5508H90.3412C91.7943 15.5508 92.849 15.0547 93.5052 14.0625C93.7943 13.6953 93.9779 13.2305 94.056 12.668C94.1263 12.1133 94.1615 11.0742 94.1615 9.55078C94.1615 8.06641 94.1263 7.00391 94.056 6.36328C93.9622 5.72266 93.7396 5.20312 93.388 4.80469C92.6693 3.8125 91.6537 3.33203 90.3412 3.36328H87.2474ZM107.618 12.8438H100.036C100.036 13.8203 100.317 14.5625 100.879 15.0703C101.403 15.5859 102.09 15.8438 102.942 15.8438C103.934 15.8438 104.821 15.4492 105.602 14.6602L107.372 16.1719C106.129 17.5 104.668 18.1562 102.989 18.1406C102.348 18.1406 101.723 18.0469 101.114 17.8594C100.809 17.7578 100.512 17.6211 100.223 17.4492C99.9185 17.3008 99.6333 17.1172 99.3677 16.8984C98.8521 16.4453 98.4341 15.8125 98.1138 15C97.7622 14.2188 97.5864 13.2031 97.5864 11.9531C97.5864 10.75 97.7388 9.75 98.0435 8.95312C98.3482 8.14062 98.7388 7.5 99.2153 7.03125C99.6997 6.55469 100.243 6.21094 100.844 6C101.438 5.78906 102.024 5.68359 102.602 5.68359C103.993 5.69922 105.168 6.15625 106.129 7.05469C107.106 7.96875 107.602 9.22656 107.618 10.8281V12.8438ZM100.036 10.8281H105.168C105.137 9.88281 104.883 9.16797 104.407 8.68359C103.938 8.22266 103.336 7.99219 102.602 7.99219C101.868 7.99219 101.266 8.22266 100.797 8.68359C100.336 9.16797 100.083 9.88281 100.036 10.8281ZM111.418 18L106.953 5.83594H109.543L112.402 14.3555H112.449L115.297 5.83594H117.898L113.433 18H111.418Z" fill="#236CFF"/>
<path d="M2.01562 13.8516L2.33309 13.4653L1.95824 13.1572L1.63906 13.5226L2.01562 13.8516ZM6.86719 15.5508L6.86302 16.0509L6.87423 16.0507L6.86719 15.5508ZM10.2422 13.1719L10.7421 13.1819L10.7421 13.178L10.2422 13.1719ZM8.01562 10.875L8.10032 10.3822L8.09177 10.3808L8.08318 10.3796L8.01562 10.875ZM5.75391 10.5586L5.67254 11.052L5.6832 11.0536L5.75391 10.5586ZM2.40234 8.92969L2.77262 8.59369L2.77216 8.59319L2.40234 8.92969ZM2.70703 2.15625L3.04583 2.52401L3.05008 2.52L2.70703 2.15625ZM6.79688 0.773438L6.8079 0.273559L6.80018 0.273389L6.79245 0.273457L6.79688 0.773438ZM12.3398 2.54297L12.7541 2.82294L13.0256 2.42117L12.6324 2.13747L12.3398 2.54297ZM10.8984 4.67578L10.6234 5.09337L11.0361 5.36509L11.3127 4.95575L10.8984 4.67578ZM6.66797 3.36328L6.67812 2.86328H6.66797V3.36328ZM4.67578 3.96094L4.97488 4.36161L4.97578 4.36094L4.67578 3.96094ZM3.82031 5.8125L3.32031 5.80298V5.8125H3.82031ZM4.39453 7.14844L4.75844 6.80552L4.75508 6.80202L4.39453 7.14844ZM6.23438 7.99219L6.14332 8.48391L6.15218 8.48538L6.23438 7.99219ZM8.15625 8.26172L8.22392 7.76629L8.21827 7.76558L8.15625 8.26172ZM11.707 9.98438L11.3211 10.3022L11.3221 10.3035L11.707 9.98438ZM12.8438 13.1719L13.3438 13.185V13.1719H12.8438ZM6.84375 18.1406V18.6407L6.84974 18.6406L6.84375 18.1406ZM0.316406 15.7969L-0.060163 15.4679L-0.39195 15.8478L-0.00925755 16.1763L0.316406 15.7969ZM1.69816 14.2378C3.15193 15.4326 4.88173 16.0343 6.86302 16.0508L6.87135 15.0508C5.10265 15.0361 3.59807 14.5049 2.33309 13.4653L1.69816 14.2378ZM6.87423 16.0507C8.02799 16.0345 8.98181 15.8215 9.66306 15.3413C10.3738 14.8403 10.7237 14.0946 10.7421 13.1819L9.74229 13.1618C9.72938 13.8039 9.5012 14.2319 9.08694 14.5239C8.64319 14.8367 7.92514 15.0358 6.86015 15.0508L6.87423 16.0507ZM10.7421 13.178C10.7512 12.4367 10.5368 11.7902 10.0563 11.2946C9.58587 10.8093 8.91167 10.5217 8.10032 10.3822L7.93093 11.3678C8.61958 11.4861 9.06647 11.7102 9.33826 11.9906C9.59995 12.2605 9.74875 12.6336 9.74223 13.1657L10.7421 13.178ZM8.08318 10.3796C7.39691 10.286 6.64407 10.1807 5.82462 10.0636L5.6832 11.0536C6.50436 11.1709 7.25934 11.2765 7.94807 11.3704L8.08318 10.3796ZM5.83525 10.0653C4.44345 9.83576 3.44196 9.33133 2.77262 8.59369L2.03206 9.26568C2.89398 10.2155 4.12686 10.7971 5.67256 11.0519L5.83525 10.0653ZM2.77216 8.59319C2.07216 7.82388 1.71875 6.89145 1.71875 5.76562H0.71875C0.71875 7.12417 1.1544 8.30112 2.03252 9.26619L2.77216 8.59319ZM1.71875 5.76562C1.71875 4.39668 2.16791 3.33276 3.04581 2.52398L2.36825 1.78852C1.26178 2.80786 0.71875 4.1502 0.71875 5.76562H1.71875ZM3.05008 2.52C3.89207 1.72593 5.11838 1.28831 6.8013 1.27342L6.79245 0.273457C4.94412 0.289814 3.44386 0.77407 2.36398 1.7925L3.05008 2.52ZM6.78585 1.27332C8.81997 1.31819 10.5671 1.88067 12.0473 2.94847L12.6324 2.13747C10.9719 0.939643 9.02378 0.322439 6.8079 0.273559L6.78585 1.27332ZM11.9256 2.263L10.4842 4.39581L11.3127 4.95575L12.7541 2.82294L11.9256 2.263ZM11.1734 4.2582C9.81314 3.3624 8.31112 2.89654 6.67812 2.86338L6.65782 3.86318C8.10295 3.89252 9.42123 4.30167 10.6234 5.09337L11.1734 4.2582ZM6.66797 2.86328C5.78516 2.86328 5.00983 3.0854 4.37578 3.56094L4.97578 4.36094C5.40423 4.0396 5.95703 3.86328 6.66797 3.86328V2.86328ZM4.37668 3.56026C3.67462 4.08434 3.33836 4.86035 3.3204 5.80298L4.32022 5.82202C4.33352 5.12402 4.56757 4.66566 4.97488 4.36161L4.37668 3.56026ZM3.32031 5.8125C3.32031 6.45006 3.5736 7.01568 4.03398 7.49485L4.75508 6.80202C4.44984 6.48432 4.32031 6.15932 4.32031 5.8125H3.32031ZM4.03064 7.49134C4.516 8.00642 5.24781 8.31799 6.14333 8.48383L6.32542 7.50055C5.53344 7.35388 5.03869 7.10296 4.75843 6.80554L4.03064 7.49134ZM6.15218 8.48538C6.63072 8.56514 7.27905 8.65596 8.09423 8.75786L8.21827 7.76558C7.40845 7.66435 6.77553 7.57548 6.31657 7.49899L6.15218 8.48538ZM8.08859 8.75712C9.60893 8.96478 10.6595 9.49891 11.3211 10.3022L12.093 9.66652C11.2233 8.61047 9.90669 7.99616 8.22391 7.76632L8.08859 8.75712ZM11.3221 10.3035C12.004 11.1259 12.3438 12.0749 12.3438 13.1719H13.3438C13.3438 11.8469 12.9257 10.671 12.0919 9.66525L11.3221 10.3035ZM12.3439 13.1587C12.3037 14.6874 11.8217 15.7649 10.9604 16.4782C10.0834 17.2044 8.73598 17.6179 6.83776 17.6407L6.84974 18.6406C8.86559 18.6164 10.4752 18.1784 11.5982 17.2484C12.7369 16.3054 13.2979 14.922 13.3436 13.185L12.3439 13.1587ZM6.84375 17.6406C4.42482 17.6406 2.36644 16.8976 0.64207 15.4175L-0.00925755 16.1763C1.907 17.8211 4.20018 18.6406 6.84375 18.6406V17.6406ZM0.692976 16.1258L2.39219 14.1805L1.63906 13.5226L-0.060163 15.4679L0.692976 16.1258ZM23.4289 12.8438V13.3438H23.9289V12.8438H23.4289ZM15.8468 12.8438V12.3438H15.3468V12.8438H15.8468ZM16.6906 15.0703L17.0415 14.7141L17.0337 14.7065L17.0256 14.6992L16.6906 15.0703ZM21.4132 14.6602L21.738 14.28L21.3848 13.9782L21.0579 14.3084L21.4132 14.6602ZM23.1828 16.1719L23.548 16.5134L23.9052 16.1314L23.5076 15.7917L23.1828 16.1719ZM18.8 18.1406L18.8046 17.6406H18.8V18.1406ZM16.925 17.8594L16.7668 18.3338L16.7779 18.3373L16.925 17.8594ZM16.0343 17.4492L16.2899 17.0195L16.272 17.0088L16.2533 16.9997L16.0343 17.4492ZM15.1789 16.8984L14.8488 17.274L14.8548 17.2793L14.861 17.2844L15.1789 16.8984ZM13.925 15L14.3901 14.8166L14.3858 14.8056L14.3809 14.7948L13.925 15ZM13.8547 8.95312L14.3217 9.1317L14.3228 9.12869L13.8547 8.95312ZM15.0265 7.03125L15.3772 7.38771L15.3772 7.38767L15.0265 7.03125ZM16.6554 6L16.8209 6.47184L16.8228 6.47115L16.6554 6ZM18.4132 5.68359L18.4189 5.18359H18.4132V5.68359ZM21.9406 7.05469L22.2823 6.68965L22.2821 6.68946L21.9406 7.05469ZM23.4289 10.8281L23.9289 10.8281L23.9289 10.8232L23.4289 10.8281ZM15.8468 10.8281L15.3475 10.8034L15.3214 11.3281H15.8468V10.8281ZM20.9797 10.8281V11.3281H21.4965L21.4794 10.8116L20.9797 10.8281ZM20.2179 8.68359L20.5744 8.33288L20.5685 8.32708L20.2179 8.68359ZM16.6086 8.68359L16.258 8.32708L16.2521 8.3329L16.2464 8.33891L16.6086 8.68359ZM23.4289 12.3438H15.8468V13.3438H23.4289V12.3438ZM15.3468 12.8438C15.3468 13.9184 15.6596 14.8132 16.3555 15.4414L17.0256 14.6992C16.5966 14.3118 16.3468 13.7222 16.3468 12.8438H15.3468ZM16.3397 15.4265C16.9716 16.049 17.7928 16.3438 18.7531 16.3438V15.3438C18.0103 15.3438 17.4565 15.1229 17.0415 14.7141L16.3397 15.4265ZM18.7531 16.3438C19.8952 16.3438 20.9057 15.8835 21.7686 15.0119L21.0579 14.3084C20.3583 15.015 19.5954 15.3438 18.7531 15.3438V16.3438ZM21.0885 15.0403L22.858 16.552L23.5076 15.7917L21.738 14.28L21.0885 15.0403ZM22.8176 15.8303C21.6622 17.0656 20.3318 17.6549 18.8046 17.6406L18.7953 18.6406C20.6275 18.6576 22.219 17.9344 23.548 16.5134L22.8176 15.8303ZM18.8 17.6406C18.2089 17.6406 17.6335 17.5543 17.072 17.3815L16.7779 18.3373C17.4352 18.5395 18.1097 18.6406 18.8 18.6406V17.6406ZM17.0831 17.385C16.8139 17.2953 16.5496 17.1739 16.2899 17.0195L15.7788 17.879C16.0972 18.0683 16.4266 18.2203 16.7669 18.3337L17.0831 17.385ZM16.2533 16.9997C15.9845 16.8688 15.7325 16.7066 15.4967 16.5125L14.861 17.2844C15.1565 17.5278 15.4748 17.7328 15.8154 17.8987L16.2533 16.9997ZM15.5089 16.5229C15.067 16.1345 14.689 15.5748 14.3901 14.8166L13.4598 15.1834C13.8015 16.0502 14.2595 16.7561 14.8488 17.274L15.5089 16.5229ZM14.3809 14.7948C14.0686 14.1006 13.8976 13.1622 13.8976 11.9531H12.8976C12.8976 13.244 13.0783 14.3369 13.469 15.2052L14.3809 14.7948ZM13.8976 11.9531C13.8976 10.7879 14.0458 9.85336 14.3217 9.13169L13.3876 8.77456C13.0542 9.64664 12.8976 10.7121 12.8976 11.9531H13.8976ZM14.3228 9.12869C14.6093 8.36482 14.9655 7.79261 15.3772 7.38771L14.6759 6.67479C14.1344 7.20739 13.7094 7.91643 13.3865 8.77756L14.3228 9.12869ZM15.3772 7.38767C15.8126 6.95927 16.2933 6.65682 16.8209 6.47183L16.49 5.52817C15.8144 5.76506 15.2092 6.1501 14.6759 6.67483L15.3772 7.38767ZM16.8228 6.47115C17.3677 6.27759 17.8971 6.18359 18.4132 6.18359V5.18359C17.7732 5.18359 17.1307 5.30054 16.4881 5.52885L16.8228 6.47115ZM18.4076 6.18356C19.6812 6.19787 20.7349 6.61195 21.5991 7.41992L22.2821 6.68946C21.2244 5.70055 19.9265 5.20057 18.4189 5.18363L18.4076 6.18356ZM21.5989 7.41973C22.4563 8.22223 22.9143 9.33898 22.9289 10.833L23.9289 10.8232C23.9122 9.11415 23.378 7.71527 22.2823 6.68965L21.5989 7.41973ZM22.9289 10.8281V12.8438H23.9289V10.8281H22.9289ZM15.8468 11.3281H20.9797V10.3281H15.8468V11.3281ZM21.4794 10.8116C21.4456 9.79026 21.1683 8.93665 20.5744 8.33293L19.8615 9.03426C20.2207 9.39929 20.4512 9.97537 20.4799 10.8446L21.4794 10.8116ZM20.5685 8.32708C19.9949 7.76308 19.262 7.49219 18.4132 7.49219V8.49219C19.0332 8.49219 19.5034 8.68224 19.8674 9.04011L20.5685 8.32708ZM18.4132 7.49219C17.5645 7.49219 16.8316 7.76308 16.258 8.32708L16.9591 9.04011C17.3231 8.68224 17.7933 8.49219 18.4132 8.49219V7.49219ZM16.2464 8.33891C15.6743 8.94007 15.3978 9.78759 15.3475 10.8034L16.3462 10.8529C16.3896 9.97804 16.621 9.39587 16.9708 9.02828L16.2464 8.33891ZM24.346 8.95312L23.8705 8.79831L23.868 8.80646L24.346 8.95312ZM25.3538 7.25391L25.7104 7.60443L25.7255 7.5891L25.7392 7.57254L25.3538 7.25391ZM26.7601 6.16406L26.5318 5.71916L26.5251 5.72273L26.7601 6.16406ZM29.0452 5.68359L29.0534 5.18366L29.0451 5.18353L29.0368 5.18366L29.0452 5.68359ZM31.3773 6.16406L31.6172 5.72519L31.6056 5.71921L31.3773 6.16406ZM32.7367 7.25391L32.344 7.56348L32.3661 7.59151L32.392 7.61611L32.7367 7.25391ZM33.7679 8.95312L34.2489 8.81647L34.2465 8.80843L33.7679 8.95312ZM33.7679 14.8359L34.2465 14.9806L34.248 14.9755L33.7679 14.8359ZM32.7367 16.582L32.3803 16.2313L32.3695 16.2423L32.3594 16.2539L32.7367 16.582ZM32.1624 17.1094L31.8602 16.711L31.837 16.7287L31.8159 16.749L32.1624 17.1094ZM31.3773 17.6133L31.1763 17.1555L31.1531 17.1656L31.1311 17.1781L31.3773 17.6133ZM29.0452 18.1406L29.0368 18.6406L29.0451 18.6407L29.0534 18.6406L29.0452 18.1406ZM26.7601 17.6133L27.0063 17.1781L26.9963 17.1724L26.986 17.1672L26.7601 17.6133ZM25.3538 16.582L25.7298 16.2521L25.7217 16.2434L25.3538 16.582ZM24.346 14.8359L23.869 14.9857L23.8706 14.9907L24.346 14.8359ZM31.4945 10.0312L31.9851 9.93504L31.9844 9.93127L31.4945 10.0312ZM31.014 9.02344L30.5961 9.29803L30.6121 9.32229L30.6307 9.34455L31.014 9.02344ZM30.2171 8.37891L29.9977 8.82819L30.0058 8.83215L30.0141 8.83581L30.2171 8.37891ZM27.8968 8.37891L28.1077 8.83227L28.1083 8.832L27.8968 8.37891ZM27.0765 9.02344L26.6805 8.71793L26.6726 8.7287L27.0765 9.02344ZM26.6195 10.0312L26.1338 9.91231L26.1328 9.91673L26.6195 10.0312ZM26.6195 13.7578L27.1062 13.6433L27.1057 13.6411L26.6195 13.7578ZM27.0765 14.8125L26.6654 15.0971L26.6835 15.1233L26.7049 15.147L27.0765 14.8125ZM27.8968 15.4336L27.661 15.8745L27.669 15.8788L27.6772 15.8828L27.8968 15.4336ZM30.2171 15.4336L29.9896 14.9884L29.9894 14.9885L30.2171 15.4336ZM31.014 14.8125L30.6225 14.5013L30.6172 14.5083L31.014 14.8125ZM31.4945 13.7578L31.0042 13.6598L31.0038 13.6616L31.4945 13.7578ZM24.5296 11.9062C24.5296 10.6423 24.6348 9.71644 24.824 9.09979L23.868 8.80646C23.6354 9.56481 23.5296 10.6077 23.5296 11.9062H24.5296ZM24.8215 9.10792C25.0185 8.50263 25.3164 8.00519 25.7104 7.60443L24.9973 6.90339C24.485 7.42449 24.111 8.05987 23.8706 8.79833L24.8215 9.10792ZM25.7392 7.57254C26.0232 7.229 26.4351 6.9036 26.9951 6.6054L26.5251 5.72273C25.882 6.06515 25.3563 6.46632 24.9685 6.93527L25.7392 7.57254ZM26.9884 6.60891C27.4927 6.35013 28.1722 6.19834 29.0537 6.18352L29.0368 5.18366C28.0589 5.2001 27.215 5.36862 26.5318 5.71921L26.9884 6.60891ZM29.0371 6.18353C29.9528 6.19842 30.6467 6.35116 31.149 6.60891L31.6056 5.71921C30.9204 5.36759 30.0596 5.20002 29.0534 5.18366L29.0371 6.18353ZM31.1374 6.60279C31.6807 6.89978 32.0756 7.2231 32.344 7.56348L33.1293 6.94433C32.757 6.47221 32.2457 6.06897 31.6171 5.72534L31.1374 6.60279ZM32.392 7.61611C32.8105 8.01435 33.1099 8.50454 33.2893 9.09782L34.2465 8.80843C34.0196 8.05796 33.6316 7.41533 33.0813 6.8917L32.392 7.61611ZM33.2869 9.08976C33.4634 9.71087 33.5609 10.6408 33.5609 11.9062H34.5609C34.5609 10.6092 34.463 9.57038 34.2489 8.81649L33.2869 9.08976ZM33.5609 11.9062C33.5609 13.1725 33.4632 14.0929 33.2878 14.6964L34.248 14.9755C34.4632 14.2352 34.5609 13.2025 34.5609 11.9062H33.5609ZM33.2893 14.6912C33.1092 15.2869 32.8069 15.7979 32.3803 16.2313L33.093 16.9327C33.6352 16.3818 34.0203 15.7287 34.2465 14.9806L33.2893 14.6912ZM32.3594 16.2539C32.2295 16.4033 32.0645 16.5561 31.8602 16.711L32.4646 17.5077C32.7135 17.3189 32.9313 17.1202 33.114 16.9101L32.3594 16.2539ZM31.8159 16.749C31.664 16.895 31.4552 17.033 31.1763 17.1555L31.5783 18.0711C31.9399 17.9123 32.2546 17.7144 32.509 17.4698L31.8159 16.749ZM31.1311 17.1781C30.6337 17.4595 29.9467 17.6259 29.0371 17.6407L29.0534 18.6406C30.0656 18.6241 30.9334 18.4389 31.6235 18.0485L31.1311 17.1781ZM29.0537 17.6407C28.1785 17.626 27.5059 17.4607 27.0063 17.1781L26.5139 18.0485C27.2018 18.4377 28.0526 18.624 29.0368 18.6406L29.0537 17.6407ZM26.986 17.1672C26.4239 16.8825 26.0123 16.5743 25.7297 16.2522L24.978 16.9118C25.3673 17.3554 25.8931 17.7346 26.5342 18.0593L26.986 17.1672ZM25.7217 16.2434C25.3199 15.807 25.0193 15.2886 24.8215 14.6811L23.8706 14.9907C24.1103 15.727 24.4815 16.3727 24.986 16.9207L25.7217 16.2434ZM24.8231 14.6862C24.635 14.0872 24.5296 13.1711 24.5296 11.9062H23.5296C23.5296 13.2039 23.6351 14.2409 23.869 14.9857L24.8231 14.6862ZM32.1117 11.9297C32.1117 11.058 32.0732 10.3841 31.9851 9.93504L31.0038 10.1275C31.072 10.4753 31.1117 11.067 31.1117 11.9297H32.1117ZM31.9844 9.93127C31.8902 9.47008 31.6948 9.05743 31.3973 8.70233L30.6307 9.34455C30.8176 9.56757 30.9424 9.8268 31.0046 10.1312L31.9844 9.93127ZM31.4319 8.74885C31.1908 8.38209 30.8437 8.11022 30.4202 7.922L30.0141 8.83581C30.2937 8.9601 30.4778 9.11791 30.5961 9.29803L31.4319 8.74885ZM30.4365 7.92962C30.0204 7.7264 29.5522 7.63281 29.0452 7.63281V8.63281C29.4289 8.63281 29.742 8.70329 29.9977 8.82819L30.4365 7.92962ZM29.0452 7.63281C28.5631 7.63281 28.1075 7.7288 27.6854 7.92581L28.1083 8.832C28.3892 8.70088 28.6992 8.63281 29.0452 8.63281V7.63281ZM27.6859 7.92555C27.2828 8.11306 26.944 8.37659 26.6806 8.71804L27.4724 9.32884C27.6309 9.12341 27.839 8.95725 28.1077 8.83227L27.6859 7.92555ZM26.6726 8.7287C26.4195 9.07558 26.2415 9.47258 26.1338 9.91232L27.1051 10.1502C27.1849 9.8243 27.3116 9.54942 27.4804 9.31817L26.6726 8.7287ZM26.1328 9.91673C26.025 10.3746 25.9788 11.0482 25.9788 11.9062H26.9788C26.9788 11.0612 27.0264 10.4848 27.1062 10.1458L26.1328 9.91673ZM25.9788 11.9062C25.9788 12.7561 26.0249 13.4231 26.1333 13.8745L27.1057 13.6411C27.0265 13.3112 26.9788 12.7439 26.9788 11.9062H25.9788ZM26.1328 13.8723C26.2393 14.3253 26.4153 14.7358 26.6654 15.0971L27.4876 14.5279C27.3158 14.2798 27.1871 13.9872 27.1062 13.6433L26.1328 13.8723ZM26.7049 15.147C26.9617 15.4323 27.2843 15.673 27.661 15.8745L28.1326 14.9927C27.8375 14.8348 27.6132 14.6614 27.4481 14.478L26.7049 15.147ZM27.6772 15.8828C28.1011 16.09 28.5596 16.1914 29.0452 16.1914V15.1914C28.7028 15.1914 28.3956 15.1209 28.1164 14.9844L27.6772 15.8828ZM29.0452 16.1914C29.5555 16.1914 30.0268 16.0926 30.4449 15.8787L29.9894 14.9885C29.7356 15.1183 29.4256 15.1914 29.0452 15.1914V16.1914ZM30.4447 15.8788C30.8412 15.6761 31.1733 15.4265 31.4108 15.1167L30.6172 14.5083C30.4953 14.6673 30.2962 14.8317 29.9896 14.9884L30.4447 15.8788ZM31.4054 15.1236C31.6996 14.7535 31.8923 14.3275 31.9851 13.854L31.0038 13.6616C30.9404 13.985 30.8128 14.2621 30.6226 14.5014L31.4054 15.1236ZM31.9848 13.8559C32.0731 13.4142 32.1117 12.7634 32.1117 11.9297H31.1117C31.1117 12.7522 31.0721 13.3202 31.0042 13.6598L31.9848 13.8559ZM35.2593 18H34.7593V18.5H35.2593V18ZM35.2593 5.83594V5.33594H34.7593V5.83594H35.2593ZM37.7085 5.83594H38.2085V5.33594H37.7085V5.83594ZM37.7085 7.125H37.2085V7.625H37.7085V7.125ZM37.7554 7.125V7.625H37.9888L38.1387 7.44601L37.7554 7.125ZM43.6851 6.75L44.0128 6.37237L44.009 6.36912L43.6851 6.75ZM44.9858 9.91406L45.486 9.91406L45.4856 9.90002L44.9858 9.91406ZM44.9858 18V18.5H45.4858V18H44.9858ZM42.5366 18H42.0366V18.5H42.5366V18ZM41.8569 8.8125L41.5003 9.16302L41.5065 9.16911L41.8569 8.8125ZM38.3999 8.8125L38.7474 9.17215L38.7535 9.16605L38.3999 8.8125ZM37.7085 18V18.5H38.2085V18H37.7085ZM35.7593 18V5.83594H34.7593V18H35.7593ZM35.2593 6.33594H37.7085V5.33594H35.2593V6.33594ZM37.2085 5.83594V7.125H38.2085V5.83594H37.2085ZM37.7085 7.625H37.7554V6.625H37.7085V7.625ZM38.1387 7.44601C38.844 6.60375 39.7558 6.18359 40.9194 6.18359V5.18359C39.4737 5.18359 38.2761 5.72437 37.372 6.80399L38.1387 7.44601ZM40.9194 6.18359C41.7977 6.18359 42.607 6.48949 43.3611 7.13088L44.009 6.36912C43.0913 5.58864 42.0568 5.18359 40.9194 5.18359V6.18359ZM43.3573 7.12761C44.0528 7.73127 44.4498 8.63735 44.486 9.9281L45.4856 9.90002C45.4438 8.40953 44.9735 7.20623 44.0128 6.37239L43.3573 7.12761ZM44.4858 9.91406V18H45.4858V9.91406H44.4858ZM44.9858 17.5H42.5366V18.5H44.9858V17.5ZM43.0366 18V10.7578H42.0366V18H43.0366ZM43.0366 10.7578C43.0366 9.81934 42.7853 9.02381 42.2074 8.45589L41.5065 9.16911C41.8348 9.49182 42.0366 9.99316 42.0366 10.7578H43.0366ZM42.2136 8.46203C41.6637 7.90258 40.9558 7.63281 40.1343 7.63281V8.63281C40.719 8.63281 41.1595 8.81617 41.5003 9.16297L42.2136 8.46203ZM40.1343 7.63281C39.3127 7.63281 38.6028 7.90248 38.0464 8.45895L38.7535 9.16605C39.1032 8.81627 39.5496 8.63281 40.1343 8.63281V7.63281ZM38.0525 8.4529C37.4651 9.02039 37.2085 9.817 37.2085 10.7578H38.2085C38.2085 9.9955 38.4128 9.49523 38.7473 9.1721L38.0525 8.4529ZM37.2085 10.7578V18H38.2085V10.7578H37.2085ZM37.7085 17.5H35.2593V18.5H37.7085V17.5ZM53.6257 16.7227H54.1257V15.398L53.2504 16.3923L53.6257 16.7227ZM50.485 18.1406L50.4751 18.6405L50.4861 18.6407L50.4971 18.6405L50.485 18.1406ZM48.5163 17.6367L48.7773 17.2102L48.7686 17.2049L48.7596 17.1999L48.5163 17.6367ZM47.2624 16.6523L46.8727 16.9656L46.8762 16.9699L47.2624 16.6523ZM46.571 15.1875L47.0569 15.0693L47.0548 15.0616L46.571 15.1875ZM46.571 8.61328L47.0553 8.73763L47.0564 8.73298L46.571 8.61328ZM47.2624 7.17188L47.649 7.48891L47.6554 7.48117L47.6614 7.47318L47.2624 7.17188ZM48.5163 6.14062L48.2746 5.70293L48.2729 5.70384L48.5163 6.14062ZM50.485 5.68359V5.1835L50.4751 5.18369L50.485 5.68359ZM53.6257 7.125L53.2575 7.46327L54.1257 8.40831V7.125H53.6257ZM53.6257 5.83594V5.33594H53.1257V5.83594H53.6257ZM56.0749 5.83594H56.5749V5.33594H56.0749V5.83594ZM56.0749 17.707L56.5749 17.7156V17.707H56.0749ZM54.4928 21.7383L54.1713 21.3554L54.1677 21.3584L54.4928 21.7383ZM50.7897 23.0625L50.7802 23.5625H50.7897V23.0625ZM46.571 21.0234L46.2595 20.6323L45.8495 20.9588L46.195 21.353L46.571 21.0234ZM48.4694 19.5117L48.8089 19.1447L48.4938 18.8532L48.1579 19.1206L48.4694 19.5117ZM49.5475 20.25L49.7875 19.8114L49.7794 19.8069L49.7711 19.8028L49.5475 20.25ZM50.8366 20.6133L50.8191 21.113L50.8278 21.1133H50.8366V20.6133ZM52.8522 19.9219L53.1883 20.2922L53.1942 20.2866L52.8522 19.9219ZM53.6257 17.9766L54.1257 17.986V17.9766H53.6257ZM48.8913 13.8516L49.386 13.7779L49.3836 13.764L48.8913 13.8516ZM49.278 14.7656L49.678 14.4656L49.6698 14.4547L49.6611 14.4443L49.278 14.7656ZM50.028 15.3633L50.31 14.9504L50.2877 14.9351L50.2638 14.9224L50.028 15.3633ZM52.4186 15.3633L52.174 14.9272L52.1548 14.938L52.1366 14.9504L52.4186 15.3633ZM53.1452 14.7656L52.7621 14.4443L52.7533 14.4547L52.7452 14.4656L53.1452 14.7656ZM53.5553 13.8516L54.0464 13.9456L54.0491 13.9317L54.051 13.9176L53.5553 13.8516ZM53.5553 9.96094L54.0513 9.89762L54.0493 9.88219L54.0464 9.8669L53.5553 9.96094ZM53.1452 9.07031L52.7452 9.37031L52.7583 9.3878L52.7729 9.40409L53.1452 9.07031ZM52.4186 8.42578L52.6936 8.0082L52.6788 7.99841L52.6633 7.98971L52.4186 8.42578ZM51.2233 8.13281L51.2397 7.63308L51.2233 7.63254L51.2069 7.63308L51.2233 8.13281ZM50.028 8.42578L49.7834 7.98971L49.7726 7.99576L49.7621 8.00234L50.028 8.42578ZM49.278 9.07031L49.6503 9.40409L49.6649 9.3878L49.678 9.37031L49.278 9.07031ZM48.8913 9.96094L49.3843 10.0449L49.3858 10.0346L48.8913 9.96094ZM53.2504 16.3923C52.5437 17.1949 51.6318 17.6127 50.4729 17.6408L50.4971 18.6405C51.9164 18.6061 53.0982 18.0785 54.0009 17.053L53.2504 16.3923ZM50.4949 17.6407C49.7697 17.6264 49.2063 17.4728 48.7773 17.2102L48.2553 18.0632C48.8732 18.4413 49.6222 18.6236 50.4751 18.6405L50.4949 17.6407ZM48.7596 17.1999C48.2483 16.915 47.886 16.6236 47.6486 16.3348L46.8762 16.9699C47.2168 17.3842 47.6905 17.749 48.2729 18.0735L48.7596 17.1999ZM47.6521 16.3391C47.3847 16.0065 47.1829 15.5878 47.0568 15.0693L46.0851 15.3057C46.2403 15.9435 46.4995 16.5014 46.8727 16.9656L47.6521 16.3391ZM47.0548 15.0616C46.9248 14.5619 46.8483 13.5376 46.8483 11.9297H45.8483C45.8483 13.5249 45.9203 14.6725 46.0871 15.3134L47.0548 15.0616ZM46.8483 11.9297C46.8483 10.2903 46.9248 9.24584 47.0553 8.73763L46.0867 8.48894C45.9203 9.13697 45.8483 10.3034 45.8483 11.9297H46.8483ZM47.0564 8.73298C47.1821 8.22326 47.383 7.81328 47.649 7.48891L46.8757 6.85484C46.5011 7.31172 46.2411 7.86267 46.0855 8.49358L47.0564 8.73298ZM47.6614 7.47318C47.8979 7.16003 48.2558 6.85812 48.7596 6.57741L48.2729 5.70384C47.683 6.03251 47.205 6.4181 46.8634 6.87057L47.6614 7.47318ZM48.758 6.57832C49.1913 6.33904 49.762 6.19801 50.4949 6.1835L50.4751 5.18369C49.6299 5.20043 48.8882 5.36409 48.2746 5.70293L48.758 6.57832ZM50.485 6.18359C51.5443 6.18359 52.4611 6.59644 53.2575 7.46327L53.9939 6.78673C53.0246 5.73168 51.8477 5.18359 50.485 5.18359V6.18359ZM54.1257 7.125V5.83594H53.1257V7.125H54.1257ZM53.6257 6.33594H56.0749V5.33594H53.6257V6.33594ZM55.5749 5.83594V17.707H56.5749V5.83594H55.5749ZM55.5749 17.6985C55.5452 19.4377 55.0473 20.6198 54.1713 21.3554L54.8144 22.1212C55.9852 21.138 56.542 19.6326 56.5748 17.7156L55.5749 17.6985ZM54.1677 21.3584C53.2327 22.1589 52.1156 22.5625 50.7897 22.5625V23.5625C52.3388 23.5625 53.6905 23.0833 54.818 22.1181L54.1677 21.3584ZM50.7992 22.5626C49.3023 22.5342 48.0257 21.9246 46.947 20.6939L46.195 21.353C47.4444 22.7785 48.9802 23.5283 50.7802 23.5624L50.7992 22.5626ZM46.8824 21.4146L48.7809 19.9029L48.1579 19.1206L46.2595 20.6323L46.8824 21.4146ZM48.1299 19.8788C48.4793 20.202 48.8783 20.4744 49.3239 20.6972L49.7711 19.8028C49.4043 19.6194 49.0845 19.3996 48.8089 19.1447L48.1299 19.8788ZM49.3075 20.6886C49.7858 20.9503 50.2912 21.0945 50.8191 21.113L50.8541 20.1136C50.4913 20.1009 50.1374 20.0028 49.7875 19.8114L49.3075 20.6886ZM50.8366 21.1133C51.7682 21.1133 52.5693 20.8539 53.1883 20.2921L52.5162 19.5516C52.1195 19.9117 51.5768 20.1133 50.8366 20.1133V21.1133ZM53.1942 20.2866C53.8127 19.7068 54.108 18.9189 54.1256 17.986L53.1257 17.9671C53.1121 18.6905 52.8918 19.1994 52.5102 19.5571L53.1942 20.2866ZM54.1257 17.9766V16.7227H53.1257V17.9766H54.1257ZM48.2975 11.9297C48.2975 12.8566 48.3278 13.5385 48.399 13.9391L49.3836 13.764C49.3298 13.4615 49.2975 12.8621 49.2975 11.9297H48.2975ZM48.3967 13.9252C48.4626 14.3675 48.6228 14.7625 48.8949 15.0869L49.6611 14.4443C49.5269 14.2843 49.4293 14.07 49.3858 13.7779L48.3967 13.9252ZM48.878 15.0656C49.0995 15.361 49.4156 15.6027 49.7922 15.8042L50.2638 14.9224C49.9685 14.7644 49.7846 14.6077 49.678 14.4656L48.878 15.0656ZM49.746 15.7762C50.1667 16.0635 50.6694 16.1914 51.2233 16.1914V15.1914C50.8241 15.1914 50.5299 15.1006 50.31 14.9504L49.746 15.7762ZM51.2233 16.1914C51.7773 16.1914 52.2799 16.0635 52.7006 15.7762L52.1366 14.9504C51.9167 15.1006 51.6225 15.1914 51.2233 15.1914V16.1914ZM52.6633 15.7994C53.0246 15.5967 53.3277 15.3557 53.5452 15.0656L52.7452 14.4656C52.6346 14.6131 52.4533 14.7705 52.174 14.9272L52.6633 15.7994ZM53.5283 15.0869C53.7954 14.7684 53.963 14.3812 54.0464 13.9456L53.0643 13.7575C53.007 14.0563 52.9012 14.2784 52.7621 14.4443L53.5283 15.0869ZM54.051 13.9176C54.1028 13.5289 54.1257 12.8572 54.1257 11.9297H53.1257C53.1257 12.8616 53.1016 13.4711 53.0597 13.7855L54.051 13.9176ZM54.1257 11.9297C54.1257 10.9858 54.1027 10.3002 54.0513 9.89762L53.0594 10.0243C53.1017 10.3561 53.1257 10.9829 53.1257 11.9297H54.1257ZM54.0464 9.8669C53.9629 9.43084 53.7937 9.04466 53.5175 8.73654L52.7729 9.40409C52.9029 9.54909 53.0071 9.75666 53.0643 10.055L54.0464 9.8669ZM53.5452 8.77031C53.3357 8.49098 53.0442 8.23906 52.6936 8.0082L52.1436 8.84337C52.4337 9.03438 52.6266 9.21214 52.7452 9.37031L53.5452 8.77031ZM52.6633 7.98971C52.2554 7.76089 51.7732 7.65057 51.2397 7.63308L51.2069 8.63254C51.6265 8.6463 51.9413 8.7313 52.174 8.86185L52.6633 7.98971ZM51.2069 7.63308C50.6734 7.65057 50.1913 7.76089 49.7834 7.98971L50.2726 8.86185C50.5054 8.7313 50.8201 8.6463 51.2397 8.63254L51.2069 7.63308ZM49.7621 8.00234C49.3957 8.23244 49.0914 8.48576 48.878 8.77031L49.678 9.37031C49.7927 9.21736 49.9885 9.041 50.2939 8.84923L49.7621 8.00234ZM48.9057 8.73654C48.6241 9.05062 48.4626 9.44477 48.3967 9.88728L49.3858 10.0346C49.4293 9.74273 49.5256 9.54313 49.6503 9.40409L48.9057 8.73654ZM48.3984 9.87704C48.3279 10.2909 48.2975 10.9862 48.2975 11.9297H49.2975C49.2975 10.9826 49.3296 10.3654 49.3842 10.0448L48.3984 9.87704ZM57.8827 18H57.3827V18.5H57.8827V18ZM57.8827 0.914062V0.414062H57.3827V0.914062H57.8827ZM60.3319 0.914062H60.8319V0.414062H60.3319V0.914062ZM60.3319 7.125H59.8319V7.625H60.3319V7.125ZM60.3787 7.125V7.625H60.6122L60.7621 7.44601L60.3787 7.125ZM66.3084 6.75L66.6362 6.37237L66.6324 6.36912L66.3084 6.75ZM67.6092 9.91406L68.1094 9.91406L68.109 9.90002L67.6092 9.91406ZM67.6092 18V18.5H68.1092V18H67.6092ZM65.16 18H64.66V18.5H65.16V18ZM64.4803 8.8125L64.1236 9.16302L64.1298 9.16911L64.4803 8.8125ZM61.0233 8.8125L61.3707 9.17215L61.3768 9.16605L61.0233 8.8125ZM60.3319 18V18.5H60.8319V18H60.3319ZM58.3827 18V0.914062H57.3827V18H58.3827ZM57.8827 1.41406H60.3319V0.414062H57.8827V1.41406ZM59.8319 0.914062V7.125H60.8319V0.914062H59.8319ZM60.3319 7.625H60.3787V6.625H60.3319V7.625ZM60.7621 7.44601C61.4674 6.60375 62.3791 6.18359 63.5428 6.18359V5.18359C62.0971 5.18359 60.8995 5.72437 59.9954 6.80399L60.7621 7.44601ZM63.5428 6.18359C64.4211 6.18359 65.2303 6.48949 65.9845 7.13088L66.6324 6.36912C65.7147 5.58864 64.6802 5.18359 63.5428 5.18359V6.18359ZM65.9807 7.12761C66.6762 7.73127 67.0732 8.63735 67.1094 9.9281L68.109 9.90002C68.0672 8.40953 67.5969 7.20623 66.6362 6.37239L65.9807 7.12761ZM67.1092 9.91406V18H68.1092V9.91406H67.1092ZM67.6092 17.5H65.16V18.5H67.6092V17.5ZM65.66 18V10.7578H64.66V18H65.66ZM65.66 10.7578C65.66 9.81934 65.4087 9.02381 64.8308 8.45589L64.1298 9.16911C64.4582 9.49182 64.66 9.99316 64.66 10.7578H65.66ZM64.8369 8.46203C64.2871 7.90258 63.5792 7.63281 62.7577 7.63281V8.63281C63.3424 8.63281 63.7829 8.81617 64.1237 9.16297L64.8369 8.46203ZM62.7577 7.63281C61.9361 7.63281 61.2262 7.90248 60.6697 8.45895L61.3768 9.16605C61.7266 8.81627 62.173 8.63281 62.7577 8.63281V7.63281ZM60.6759 8.4529C60.0885 9.02039 59.8319 9.817 59.8319 10.7578H60.8319C60.8319 9.9955 61.0362 9.49523 61.3707 9.1721L60.6759 8.4529ZM59.8319 10.7578V18H60.8319V10.7578H59.8319ZM60.3319 17.5H57.8827V18.5H60.3319V17.5ZM69.124 8.95312L68.6485 8.79831L68.646 8.80646L69.124 8.95312ZM70.1318 7.25391L70.4884 7.60443L70.5035 7.5891L70.5172 7.57254L70.1318 7.25391ZM71.5381 6.16406L71.3098 5.71916L71.3031 5.72273L71.5381 6.16406ZM73.8232 5.68359L73.8314 5.18366L73.8231 5.18353L73.8148 5.18366L73.8232 5.68359ZM76.1553 6.16406L76.3952 5.72519L76.3836 5.71921L76.1553 6.16406ZM77.5147 7.25391L77.122 7.56348L77.1441 7.59151L77.17 7.61611L77.5147 7.25391ZM78.5459 8.95312L79.0269 8.81647L79.0245 8.80843L78.5459 8.95312ZM78.5459 14.8359L79.0245 14.9806L79.026 14.9755L78.5459 14.8359ZM77.5147 16.582L77.1583 16.2313L77.1475 16.2423L77.1374 16.2539L77.5147 16.582ZM76.9404 17.1094L76.6382 16.711L76.615 16.7287L76.5939 16.749L76.9404 17.1094ZM76.1553 17.6133L75.9543 17.1555L75.9311 17.1656L75.9091 17.1781L76.1553 17.6133ZM73.8232 18.1406L73.8148 18.6406L73.8231 18.6407L73.8314 18.6406L73.8232 18.1406ZM71.5381 17.6133L71.7843 17.1781L71.7743 17.1724L71.764 17.1672L71.5381 17.6133ZM70.1318 16.582L70.5078 16.2521L70.4997 16.2434L70.1318 16.582ZM69.124 14.8359L68.647 14.9857L68.6486 14.9907L69.124 14.8359ZM76.2725 10.0312L76.7631 9.93504L76.7624 9.93127L76.2725 10.0312ZM75.792 9.02344L75.3741 9.29803L75.3901 9.32229L75.4087 9.34455L75.792 9.02344ZM74.9951 8.37891L74.7757 8.82819L74.7838 8.83215L74.7921 8.83581L74.9951 8.37891ZM72.6748 8.37891L72.8857 8.83227L72.8863 8.832L72.6748 8.37891ZM71.8545 9.02344L71.4585 8.71793L71.4506 8.7287L71.8545 9.02344ZM71.3975 10.0312L70.9118 9.91231L70.9108 9.91673L71.3975 10.0312ZM71.3975 13.7578L71.8842 13.6433L71.8837 13.6411L71.3975 13.7578ZM71.8545 14.8125L71.4434 15.0971L71.4615 15.1233L71.4829 15.147L71.8545 14.8125ZM72.6748 15.4336L72.439 15.8745L72.447 15.8788L72.4552 15.8828L72.6748 15.4336ZM74.9951 15.4336L74.7676 14.9884L74.7674 14.9885L74.9951 15.4336ZM75.792 14.8125L75.4005 14.5013L75.3952 14.5083L75.792 14.8125ZM76.2725 13.7578L75.7822 13.6598L75.7818 13.6616L76.2725 13.7578ZM69.3076 11.9062C69.3076 10.6423 69.4128 9.71644 69.602 9.09979L68.646 8.80646C68.4134 9.56481 68.3076 10.6077 68.3076 11.9062H69.3076ZM69.5995 9.10792C69.7965 8.50263 70.0944 8.00519 70.4884 7.60443L69.7753 6.90339C69.263 7.42449 68.889 8.05987 68.6486 8.79833L69.5995 9.10792ZM70.5172 7.57254C70.8012 7.229 71.2131 6.9036 71.7731 6.6054L71.3031 5.72273C70.66 6.06515 70.1343 6.46632 69.7465 6.93527L70.5172 7.57254ZM71.7664 6.60891C72.2707 6.35013 72.9502 6.19834 73.8317 6.18352L73.8148 5.18366C72.8369 5.2001 71.993 5.36862 71.3098 5.71921L71.7664 6.60891ZM73.8151 6.18353C74.7308 6.19842 75.4247 6.35116 75.927 6.60891L76.3836 5.71921C75.6984 5.36759 74.8376 5.20002 73.8314 5.18366L73.8151 6.18353ZM75.9154 6.60279C76.4587 6.89978 76.8536 7.2231 77.122 7.56348L77.9073 6.94433C77.535 6.47221 77.0237 6.06897 76.3951 5.72534L75.9154 6.60279ZM77.17 7.61611C77.5885 8.01435 77.8879 8.50454 78.0673 9.09782L79.0245 8.80843C78.7976 8.05796 78.4096 7.41533 77.8593 6.8917L77.17 7.61611ZM78.0649 9.08976C78.2414 9.71087 78.3389 10.6408 78.3389 11.9062H79.3389C79.3389 10.6092 79.241 9.57038 79.0269 8.81649L78.0649 9.08976ZM78.3389 11.9062C78.3389 13.1725 78.2412 14.0929 78.0658 14.6964L79.026 14.9755C79.2412 14.2352 79.3389 13.2025 79.3389 11.9062H78.3389ZM78.0673 14.6912C77.8872 15.2869 77.5849 15.7979 77.1583 16.2313L77.871 16.9327C78.4132 16.3818 78.7983 15.7287 79.0245 14.9806L78.0673 14.6912ZM77.1374 16.2539C77.0075 16.4033 76.8425 16.5561 76.6382 16.711L77.2426 17.5077C77.4915 17.3189 77.7093 17.1202 77.892 16.9101L77.1374 16.2539ZM76.5939 16.749C76.442 16.895 76.2332 17.033 75.9543 17.1555L76.3563 18.0711C76.7179 17.9123 77.0326 17.7144 77.287 17.4698L76.5939 16.749ZM75.9091 17.1781C75.4117 17.4595 74.7247 17.6259 73.8151 17.6407L73.8314 18.6406C74.8436 18.6241 75.7114 18.4389 76.4015 18.0485L75.9091 17.1781ZM73.8317 17.6407C72.9565 17.626 72.2839 17.4607 71.7843 17.1781L71.2919 18.0485C71.9798 18.4377 72.8306 18.624 73.8148 18.6406L73.8317 17.6407ZM71.764 17.1672C71.2019 16.8825 70.7903 16.5743 70.5077 16.2522L69.756 16.9118C70.1453 17.3554 70.6711 17.7346 71.3122 18.0593L71.764 17.1672ZM70.4997 16.2434C70.0979 15.807 69.7973 15.2886 69.5995 14.6811L68.6486 14.9907C68.8883 15.727 69.2595 16.3727 69.764 16.9207L70.4997 16.2434ZM69.6011 14.6862C69.413 14.0872 69.3076 13.1711 69.3076 11.9062H68.3076C68.3076 13.2039 68.4131 14.2409 68.647 14.9857L69.6011 14.6862ZM76.8897 11.9297C76.8897 11.058 76.8512 10.3841 76.7631 9.93504L75.7818 10.1275C75.85 10.4753 75.8897 11.067 75.8897 11.9297H76.8897ZM76.7624 9.93127C76.6682 9.47008 76.4728 9.05743 76.1753 8.70233L75.4087 9.34455C75.5956 9.56757 75.7204 9.8268 75.7826 10.1312L76.7624 9.93127ZM76.2099 8.74885C75.9688 8.38209 75.6217 8.11022 75.1982 7.922L74.7921 8.83581C75.0717 8.9601 75.2558 9.11791 75.3741 9.29803L76.2099 8.74885ZM75.2145 7.92962C74.7984 7.7264 74.3302 7.63281 73.8232 7.63281V8.63281C74.2069 8.63281 74.52 8.70329 74.7757 8.82819L75.2145 7.92962ZM73.8232 7.63281C73.3411 7.63281 72.8855 7.7288 72.4634 7.92581L72.8863 8.832C73.1672 8.70088 73.4772 8.63281 73.8232 8.63281V7.63281ZM72.4639 7.92555C72.0608 8.11306 71.722 8.37659 71.4586 8.71804L72.2504 9.32884C72.4089 9.12341 72.617 8.95725 72.8857 8.83227L72.4639 7.92555ZM71.4506 8.7287C71.1975 9.07558 71.0195 9.47258 70.9118 9.91232L71.8831 10.1502C71.9629 9.8243 72.0896 9.54942 72.2584 9.31817L71.4506 8.7287ZM70.9108 9.91673C70.803 10.3746 70.7568 11.0482 70.7568 11.9062H71.7568C71.7568 11.0612 71.8044 10.4848 71.8842 10.1458L70.9108 9.91673ZM70.7568 11.9062C70.7568 12.7561 70.8029 13.4231 70.9113 13.8745L71.8837 13.6411C71.8045 13.3112 71.7568 12.7439 71.7568 11.9062H70.7568ZM70.9108 13.8723C71.0173 14.3253 71.1933 14.7358 71.4434 15.0971L72.2656 14.5279C72.0938 14.2798 71.9651 13.9872 71.8842 13.6433L70.9108 13.8723ZM71.4829 15.147C71.7397 15.4323 72.0623 15.673 72.439 15.8745L72.9106 14.9927C72.6155 14.8348 72.3912 14.6614 72.2261 14.478L71.4829 15.147ZM72.4552 15.8828C72.8791 16.09 73.3376 16.1914 73.8232 16.1914V15.1914C73.4808 15.1914 73.1736 15.1209 72.8944 14.9844L72.4552 15.8828ZM73.8232 16.1914C74.3335 16.1914 74.8048 16.0926 75.2229 15.8787L74.7674 14.9885C74.5136 15.1183 74.2036 15.1914 73.8232 15.1914V16.1914ZM75.2227 15.8788C75.6192 15.6761 75.9513 15.4265 76.1888 15.1167L75.3952 14.5083C75.2733 14.6673 75.0742 14.8317 74.7676 14.9884L75.2227 15.8788ZM76.1834 15.1236C76.4776 14.7535 76.6703 14.3275 76.7631 13.854L75.7818 13.6616C75.7184 13.985 75.5908 14.2621 75.4006 14.5014L76.1834 15.1236ZM76.7628 13.8559C76.8511 13.4142 76.8897 12.7634 76.8897 11.9297H75.8897C75.8897 12.7522 75.8501 13.3202 75.7822 13.6598L76.7628 13.8559ZM80.1076 18H79.6076V18.5H80.1076V18ZM80.1076 15.5508V15.0508H79.6076V15.5508H80.1076ZM82.5568 15.5508H83.0568V15.0508H82.5568V15.5508ZM82.5568 18V18.5H83.0568V18H82.5568ZM80.6076 18V15.5508H79.6076V18H80.6076ZM80.1076 16.0508H82.5568V15.0508H80.1076V16.0508ZM82.0568 15.5508V18H83.0568V15.5508H82.0568ZM82.5568 17.5H80.1076V18.5H82.5568V17.5ZM84.6576 18H84.1576V18.5H84.6576V18ZM84.6576 0.914062V0.414062H84.1576V0.914062H84.6576ZM90.6341 0.914062L90.6375 0.414062H90.6341V0.914062ZM95.8372 3.79688L95.4097 4.05618L95.4134 4.06229L95.4173 4.06829L95.8372 3.79688ZM96.6224 5.8125L97.1187 5.75184L97.1177 5.74373L97.1165 5.73565L96.6224 5.8125ZM96.5521 13.3008L96.0602 13.2109L96.0592 13.2169L96.5521 13.3008ZM96.2708 14.2852L96.723 14.4987L96.7265 14.4912L96.7298 14.4836L96.2708 14.2852ZM95.7904 15.1641L96.2151 15.428L96.2162 15.4261L95.7904 15.1641ZM93.7044 17.1562L93.4511 16.7252L93.4433 16.7297L93.4358 16.7346L93.7044 17.1562ZM87.2474 3.36328V2.86328H86.7474V3.36328H87.2474ZM87.2474 15.5508H86.7474V16.0508H87.2474V15.5508ZM93.5052 14.0625L93.1123 13.7532L93.0996 13.7694L93.0882 13.7867L93.5052 14.0625ZM94.056 12.668L94.5513 12.7368L94.552 12.7308L94.056 12.668ZM94.056 6.36328L94.553 6.30873L94.552 6.29979L94.5507 6.29088L94.056 6.36328ZM93.388 4.80469L92.9831 5.09801L92.9972 5.11748L93.0131 5.1355L93.388 4.80469ZM90.3412 3.36328V3.86342L90.3531 3.86314L90.3412 3.36328ZM85.1576 18V0.914062H84.1576V18H85.1576ZM84.6576 1.41406H90.6341V0.414062H84.6576V1.41406ZM90.6307 1.41405C92.7775 1.42856 94.3475 2.30494 95.4097 4.05618L96.2648 3.53757C95.0145 1.47631 93.1157 0.430818 90.6375 0.414074L90.6307 1.41405ZM95.4173 4.06829C95.7961 4.65429 96.0305 5.26046 96.1283 5.88935L97.1165 5.73565C96.9955 4.95829 96.7065 4.22071 96.2572 3.52546L95.4173 4.06829ZM96.1261 5.87316C96.2079 6.54281 96.2513 7.73019 96.2513 9.45703H97.2513C97.2513 7.73075 97.2087 6.48844 97.1187 5.75184L96.1261 5.87316ZM96.2513 9.45703C96.2513 11.2942 96.184 12.534 96.0602 13.2109L97.0439 13.3907C97.1858 12.6145 97.2513 11.2918 97.2513 9.45703H96.2513ZM96.0592 13.2169C96.0022 13.5516 95.9185 13.8403 95.8119 14.0867L96.7298 14.4836C96.8732 14.1519 96.977 13.7843 97.045 13.3847L96.0592 13.2169ZM95.8187 14.0717C95.6948 14.334 95.5438 14.6107 95.3645 14.902L96.2162 15.4261C96.412 15.108 96.5812 14.7988 96.723 14.4987L95.8187 14.0717ZM95.3657 14.9002C94.9122 15.63 94.2784 16.239 93.4511 16.7252L93.9578 17.5873C94.9118 17.0266 95.6685 16.3075 96.2151 15.4279L95.3657 14.9002ZM93.4358 16.7346C92.6495 17.2355 91.6658 17.5 90.4583 17.5V18.5C91.8134 18.5 92.9937 18.202 93.9731 17.5779L93.4358 16.7346ZM90.4583 17.5H84.6576V18.5H90.4583V17.5ZM86.7474 3.36328V15.5508H87.7474V3.36328H86.7474ZM87.2474 16.0508H90.3412V15.0508H87.2474V16.0508ZM90.3412 16.0508C91.9196 16.0508 93.1522 15.5026 93.9223 14.3383L93.0882 13.7867C92.5458 14.6068 91.669 15.0508 90.3412 15.0508V16.0508ZM93.8981 14.3718C94.2527 13.9213 94.4635 13.3682 94.5512 12.7368L93.5608 12.5992C93.4922 13.0927 93.3359 13.4693 93.1123 13.7532L93.8981 14.3718ZM94.552 12.7308C94.6269 12.1404 94.6615 11.0712 94.6615 9.55078H93.6615C93.6615 11.0772 93.6258 12.0861 93.56 12.6051L94.552 12.7308ZM94.6615 9.55078C94.6615 8.06543 94.6266 6.97897 94.553 6.30873L93.559 6.41783C93.626 7.02884 93.6615 8.06738 93.6615 9.55078H94.6615ZM94.5507 6.29088C94.446 5.57544 94.1915 4.95952 93.7629 4.47388L93.0131 5.1355C93.2877 5.44673 93.4785 5.86987 93.5613 6.43568L94.5507 6.29088ZM93.7929 4.51136C92.9698 3.37507 91.7923 2.82859 90.3293 2.86342L90.3531 3.86314C91.515 3.83547 92.3688 4.24993 92.9831 5.09801L93.7929 4.51136ZM90.3412 2.86328H87.2474V3.86328H90.3412V2.86328ZM107.618 12.8438V13.3438H108.118V12.8438H107.618ZM100.036 12.8438V12.3438H99.5357V12.8438H100.036ZM100.879 15.0703L101.23 14.7141L101.223 14.7065L101.214 14.6992L100.879 15.0703ZM105.602 14.6602L105.927 14.28L105.574 13.9782L105.247 14.3084L105.602 14.6602ZM107.372 16.1719L107.737 16.5134L108.094 16.1314L107.696 15.7917L107.372 16.1719ZM102.989 18.1406L102.993 17.6406H102.989V18.1406ZM101.114 17.8594L100.956 18.3338L100.967 18.3373L101.114 17.8594ZM100.223 17.4492L100.479 17.0195L100.461 17.0088L100.442 16.9997L100.223 17.4492ZM99.3677 16.8984L99.0376 17.274L99.0437 17.2793L99.0498 17.2844L99.3677 16.8984ZM98.1138 15L98.5789 14.8166L98.5746 14.8056L98.5697 14.7948L98.1138 15ZM98.0435 8.95312L98.5105 9.1317L98.5116 9.12869L98.0435 8.95312ZM99.2153 7.03125L99.566 7.38771L99.566 7.38767L99.2153 7.03125ZM100.844 6L101.01 6.47184L101.012 6.47115L100.844 6ZM102.602 5.68359L102.608 5.18359H102.602V5.68359ZM106.129 7.05469L106.471 6.68965L106.471 6.68946L106.129 7.05469ZM107.618 10.8281L108.118 10.8281L108.118 10.8232L107.618 10.8281ZM100.036 10.8281L99.5363 10.8034L99.5103 11.3281H100.036V10.8281ZM105.168 10.8281V11.3281H105.685L105.668 10.8116L105.168 10.8281ZM104.407 8.68359L104.763 8.33288L104.757 8.32708L104.407 8.68359ZM100.797 8.68359L100.447 8.32708L100.441 8.3329L100.435 8.33891L100.797 8.68359ZM107.618 12.3438H100.036V13.3438H107.618V12.3438ZM99.5357 12.8438C99.5357 13.9184 99.8484 14.8132 100.544 15.4414L101.214 14.6992C100.785 14.3118 100.536 13.7222 100.536 12.8438H99.5357ZM100.529 15.4265C101.16 16.049 101.982 16.3438 102.942 16.3438V15.3438C102.199 15.3438 101.645 15.1229 101.23 14.7141L100.529 15.4265ZM102.942 16.3438C104.084 16.3438 105.094 15.8835 105.957 15.0119L105.247 14.3084C104.547 15.015 103.784 15.3438 102.942 15.3438V16.3438ZM105.277 15.0403L107.047 16.552L107.696 15.7917L105.927 14.28L105.277 15.0403ZM107.006 15.8303C105.851 17.0656 104.521 17.6549 102.993 17.6406L102.984 18.6406C104.816 18.6576 106.408 17.9344 107.737 16.5134L107.006 15.8303ZM102.989 17.6406C102.398 17.6406 101.822 17.5543 101.261 17.3815L100.967 18.3373C101.624 18.5395 102.299 18.6406 102.989 18.6406V17.6406ZM101.272 17.385C101.003 17.2953 100.738 17.1739 100.479 17.0195L99.9676 17.879C100.286 18.0683 100.615 18.2203 100.956 18.3337L101.272 17.385ZM100.442 16.9997C100.173 16.8688 99.9213 16.7066 99.6855 16.5125L99.0498 17.2844C99.3453 17.5278 99.6636 17.7328 100.004 17.8987L100.442 16.9997ZM99.6977 16.5229C99.2558 16.1345 98.8778 15.5748 98.5789 14.8166L97.6486 15.1834C97.9903 16.0502 98.4483 16.7561 99.0376 17.274L99.6977 16.5229ZM98.5697 14.7948C98.2574 14.1006 98.0864 13.1622 98.0864 11.9531H97.0864C97.0864 13.244 97.2671 14.3369 97.6578 15.2052L98.5697 14.7948ZM98.0864 11.9531C98.0864 10.7879 98.2346 9.85336 98.5105 9.13169L97.5764 8.77456C97.243 9.64664 97.0864 10.7121 97.0864 11.9531H98.0864ZM98.5116 9.12869C98.7981 8.36482 99.1543 7.79261 99.566 7.38771L98.8647 6.67479C98.3232 7.20739 97.8982 7.91643 97.5753 8.77756L98.5116 9.12869ZM99.566 7.38767C100.001 6.95927 100.482 6.65682 101.01 6.47183L100.679 5.52817C100.003 5.76506 99.398 6.1501 98.8647 6.67483L99.566 7.38767ZM101.012 6.47115C101.556 6.27759 102.086 6.18359 102.602 6.18359V5.18359C101.962 5.18359 101.32 5.30054 100.677 5.52885L101.012 6.47115ZM102.596 6.18356C103.87 6.19787 104.924 6.61195 105.788 7.41992L106.471 6.68946C105.413 5.70055 104.115 5.20057 102.608 5.18363L102.596 6.18356ZM105.788 7.41973C106.645 8.22223 107.103 9.33898 107.118 10.833L108.118 10.8232C108.101 9.11415 107.567 7.71527 106.471 6.68965L105.788 7.41973ZM107.118 10.8281V12.8438H108.118V10.8281H107.118ZM100.036 11.3281H105.168V10.3281H100.036V11.3281ZM105.668 10.8116C105.634 9.79026 105.357 8.93665 104.763 8.33293L104.05 9.03426C104.409 9.39929 104.64 9.97537 104.669 10.8446L105.668 10.8116ZM104.757 8.32708C104.184 7.76308 103.451 7.49219 102.602 7.49219V8.49219C103.222 8.49219 103.692 8.68224 104.056 9.04011L104.757 8.32708ZM102.602 7.49219C101.753 7.49219 101.02 7.76308 100.447 8.32708L101.148 9.04011C101.512 8.68224 101.982 8.49219 102.602 8.49219V7.49219ZM100.435 8.33891C99.8631 8.94007 99.5866 9.78759 99.5363 10.8034L100.535 10.8529C100.578 9.97804 100.81 9.39587 101.16 9.02828L100.435 8.33891ZM111.418 18L110.948 18.1723L111.069 18.5H111.418V18ZM106.953 5.83594V5.33594H106.237L106.483 6.00822L106.953 5.83594ZM109.543 5.83594L110.017 5.67685L109.902 5.33594H109.543V5.83594ZM112.402 14.3555L111.928 14.5146L112.042 14.8555H112.402V14.3555ZM112.449 14.3555V14.8555H112.809L112.923 14.514L112.449 14.3555ZM115.297 5.83594V5.33594H114.936L114.822 5.67743L115.297 5.83594ZM117.898 5.83594L118.368 6.00822L118.614 5.33594H117.898V5.83594ZM113.433 18V18.5H113.782L113.903 18.1723L113.433 18ZM111.887 17.8277L107.422 5.66365L106.483 6.00822L110.948 18.1723L111.887 17.8277ZM106.953 6.33594H109.543V5.33594H106.953V6.33594ZM109.069 5.99503L111.928 14.5146L112.876 14.1964L110.017 5.67685L109.069 5.99503ZM112.402 14.8555H112.449V13.8555H112.402V14.8555ZM112.923 14.514L115.771 5.99444L114.822 5.67743L111.975 14.197L112.923 14.514ZM115.297 6.33594H117.898V5.33594H115.297V6.33594ZM117.429 5.66365L112.964 17.8277L113.903 18.1723L118.368 6.00822L117.429 5.66365ZM113.433 17.5H111.418V18.5H113.433V17.5Z" fill="white" mask="url(#path-1-outside-1_1841_3555)"/>
</svg>
